%TF.GenerationSoftware,Altium Limited,Altium Designer,23.11.1 (41)*%
G04 Layer_Color=8388736*
%FSLAX45Y45*%
%MOMM*%
%TF.SameCoordinates,5324538C-4B84-4F37-AFBE-1FD82F1EBFC5*%
%TF.FilePolarity,Negative*%
%TF.FileFunction,Soldermask,Top*%
%TF.Part,Single*%
G01*
G75*
%TA.AperFunction,NonConductor*%
%ADD13C,0.20320*%
%TA.AperFunction,SMDPad,CuDef*%
%ADD33R,1.65000X1.40000*%
%TA.AperFunction,ComponentPad*%
%ADD34C,1.80320*%
%ADD35R,1.80320X1.80320*%
%ADD36C,5.28320*%
%ADD37C,2.45250*%
%ADD38C,2.30320*%
D13*
X4191656Y8615701D02*
Y8806139D01*
X4286875D01*
X4318615Y8774399D01*
Y8710920D01*
X4286875Y8679180D01*
X4191656D01*
X4382094Y8615701D02*
Y8806139D01*
X4477314D01*
X4509053Y8774399D01*
Y8710920D01*
X4477314Y8679180D01*
X4382094D01*
X4445574D02*
X4509053Y8615701D01*
X4699492Y8806139D02*
X4636012D01*
X4667752D01*
Y8647440D01*
X4636012Y8615701D01*
X4604273D01*
X4572533Y8647440D01*
X4762971Y8710920D02*
X4889930D01*
X5080369Y8806139D02*
X4953410D01*
Y8710920D01*
X5016889D01*
X4953410D01*
Y8615701D01*
X5143848Y8806139D02*
Y8774399D01*
X5207328Y8710920D01*
X5270807Y8774399D01*
Y8806139D01*
X5207328Y8710920D02*
Y8615701D01*
X5461246D02*
X5334287D01*
X5461246Y8742659D01*
Y8774399D01*
X5429506Y8806139D01*
X5366027D01*
X5334287Y8774399D01*
X5524726D02*
X5556465Y8806139D01*
X5619945D01*
X5651684Y8774399D01*
Y8742659D01*
X5619945Y8710920D01*
X5588205D01*
X5619945D01*
X5651684Y8679180D01*
Y8647440D01*
X5619945Y8615701D01*
X5556465D01*
X5524726Y8647440D01*
X5715164Y8710920D02*
X5842123D01*
X5905603Y8774399D02*
X5937342Y8806139D01*
X6000822D01*
X6032561Y8774399D01*
Y8742659D01*
X6000822Y8710920D01*
X5969082D01*
X6000822D01*
X6032561Y8679180D01*
Y8647440D01*
X6000822Y8615701D01*
X5937342D01*
X5905603Y8647440D01*
X6096041D02*
X6127781Y8615701D01*
X6191260D01*
X6223000Y8647440D01*
Y8774399D01*
X6191260Y8806139D01*
X6127781D01*
X6096041Y8774399D01*
Y8742659D01*
X6127781Y8710920D01*
X6223000D01*
X6413439Y8806139D02*
X6349959Y8774399D01*
X6286480Y8710920D01*
Y8647440D01*
X6318220Y8615701D01*
X6381699D01*
X6413439Y8647440D01*
Y8679180D01*
X6381699Y8710920D01*
X6286480D01*
X6476918Y8583961D02*
X6603877D01*
X6667357Y8806139D02*
X6794316D01*
X6730836D01*
Y8615701D01*
X6889535D02*
X6953015D01*
X6984754Y8647440D01*
Y8710920D01*
X6953015Y8742659D01*
X6889535D01*
X6857795Y8710920D01*
Y8647440D01*
X6889535Y8615701D01*
X7048234Y8552221D02*
Y8742659D01*
X7143453D01*
X7175193Y8710920D01*
Y8647440D01*
X7143453Y8615701D01*
X7048234D01*
X7365631Y8774399D02*
X7333892Y8806139D01*
X7270412D01*
X7238672Y8774399D01*
Y8742659D01*
X7270412Y8710920D01*
X7333892D01*
X7365631Y8679180D01*
Y8647440D01*
X7333892Y8615701D01*
X7270412D01*
X7238672Y8647440D01*
X7460851Y8615701D02*
X7524330D01*
X7556070Y8647440D01*
Y8710920D01*
X7524330Y8742659D01*
X7460851D01*
X7429111Y8710920D01*
Y8647440D01*
X7460851Y8615701D01*
X7619549D02*
X7683029D01*
X7651289D01*
Y8806139D01*
X7619549D01*
X7905207D02*
Y8615701D01*
X7809988D01*
X7778248Y8647440D01*
Y8710920D01*
X7809988Y8742659D01*
X7905207D01*
X8063906Y8615701D02*
X8000426D01*
X7968687Y8647440D01*
Y8710920D01*
X8000426Y8742659D01*
X8063906D01*
X8095645Y8710920D01*
Y8679180D01*
X7968687D01*
X8159125Y8742659D02*
Y8615701D01*
Y8679180D01*
X8190865Y8710920D01*
X8222605Y8742659D01*
X8254344D01*
D33*
X10430500Y283000D02*
D03*
X9635500D02*
D03*
X10430500Y733000D02*
D03*
X9635500D02*
D03*
X2810500Y283000D02*
D03*
X2015500D02*
D03*
X2810500Y733000D02*
D03*
X2015500D02*
D03*
X6620500Y283000D02*
D03*
X5825500D02*
D03*
X6620500Y733000D02*
D03*
X5825500D02*
D03*
D34*
X11430000Y2032000D02*
D03*
X11684000D02*
D03*
X11430000Y1778000D02*
D03*
X11684000D02*
D03*
X11430000Y1524000D02*
D03*
X11684000D02*
D03*
X11430000Y1270000D02*
D03*
X11303000Y6985000D02*
D03*
Y6731000D02*
D03*
X11557000Y3175000D02*
D03*
Y3429000D02*
D03*
Y3683000D02*
D03*
Y3937000D02*
D03*
Y4191000D02*
D03*
Y4445000D02*
D03*
Y4699000D02*
D03*
Y4953000D02*
D03*
Y5207000D02*
D03*
Y5461000D02*
D03*
Y5715000D02*
D03*
Y5969000D02*
D03*
Y6223000D02*
D03*
Y6477000D02*
D03*
Y6731000D02*
D03*
X11049000Y3175000D02*
D03*
Y3429000D02*
D03*
Y3683000D02*
D03*
Y3937000D02*
D03*
Y4191000D02*
D03*
Y4445000D02*
D03*
Y4699000D02*
D03*
Y4953000D02*
D03*
Y5207000D02*
D03*
Y5461000D02*
D03*
Y5715000D02*
D03*
Y5969000D02*
D03*
X762000Y2032000D02*
D03*
X1016000D02*
D03*
X762000Y1778000D02*
D03*
X1016000D02*
D03*
X762000Y1524000D02*
D03*
X1016000D02*
D03*
X762000Y1270000D02*
D03*
X4572000Y2032000D02*
D03*
X4826000D02*
D03*
X4572000Y1778000D02*
D03*
X4826000D02*
D03*
X4572000Y1524000D02*
D03*
X4826000D02*
D03*
X4572000Y1270000D02*
D03*
X8382000Y2032000D02*
D03*
X8636000D02*
D03*
X8382000Y1778000D02*
D03*
X8636000D02*
D03*
X8382000Y1524000D02*
D03*
X8636000D02*
D03*
X8382000Y1270000D02*
D03*
X3810000Y2032000D02*
D03*
X4064000D02*
D03*
X3810000Y1778000D02*
D03*
X4064000D02*
D03*
X3810000Y1524000D02*
D03*
X4064000D02*
D03*
X3810000Y1270000D02*
D03*
X7620000Y2032000D02*
D03*
X7874000D02*
D03*
X7620000Y1778000D02*
D03*
X7874000D02*
D03*
X7620000Y1524000D02*
D03*
X7874000D02*
D03*
X7620000Y1270000D02*
D03*
X3683000Y6985000D02*
D03*
Y6731000D02*
D03*
X7493000Y6985000D02*
D03*
Y6731000D02*
D03*
X889000Y3175000D02*
D03*
Y3429000D02*
D03*
Y3683000D02*
D03*
Y3937000D02*
D03*
Y4191000D02*
D03*
Y4445000D02*
D03*
Y4699000D02*
D03*
Y4953000D02*
D03*
Y5207000D02*
D03*
Y5461000D02*
D03*
Y5715000D02*
D03*
Y5969000D02*
D03*
Y6223000D02*
D03*
Y6477000D02*
D03*
Y6731000D02*
D03*
X4699000Y3175000D02*
D03*
Y3429000D02*
D03*
Y3683000D02*
D03*
Y3937000D02*
D03*
Y4191000D02*
D03*
Y4445000D02*
D03*
Y4699000D02*
D03*
Y4953000D02*
D03*
Y5207000D02*
D03*
Y5461000D02*
D03*
Y5715000D02*
D03*
Y5969000D02*
D03*
Y6223000D02*
D03*
Y6477000D02*
D03*
Y6731000D02*
D03*
X8509000Y3175000D02*
D03*
Y3429000D02*
D03*
Y3683000D02*
D03*
Y3937000D02*
D03*
Y4191000D02*
D03*
Y4445000D02*
D03*
Y4699000D02*
D03*
Y4953000D02*
D03*
Y5207000D02*
D03*
Y5461000D02*
D03*
Y5715000D02*
D03*
Y5969000D02*
D03*
Y6223000D02*
D03*
Y6477000D02*
D03*
Y6731000D02*
D03*
X1397000Y3175000D02*
D03*
Y3429000D02*
D03*
Y3683000D02*
D03*
Y3937000D02*
D03*
Y4191000D02*
D03*
Y4445000D02*
D03*
Y4699000D02*
D03*
Y4953000D02*
D03*
Y5207000D02*
D03*
Y5461000D02*
D03*
Y5715000D02*
D03*
Y5969000D02*
D03*
Y6223000D02*
D03*
Y6477000D02*
D03*
Y6731000D02*
D03*
X5207000Y3175000D02*
D03*
Y3429000D02*
D03*
Y3683000D02*
D03*
Y3937000D02*
D03*
Y4191000D02*
D03*
Y4445000D02*
D03*
Y4699000D02*
D03*
Y4953000D02*
D03*
Y5207000D02*
D03*
Y5461000D02*
D03*
Y5715000D02*
D03*
Y5969000D02*
D03*
Y6223000D02*
D03*
Y6477000D02*
D03*
Y6731000D02*
D03*
X9017000Y3175000D02*
D03*
Y3429000D02*
D03*
Y3683000D02*
D03*
Y3937000D02*
D03*
Y4191000D02*
D03*
Y4445000D02*
D03*
Y4699000D02*
D03*
Y4953000D02*
D03*
Y5207000D02*
D03*
Y5461000D02*
D03*
Y5715000D02*
D03*
Y5969000D02*
D03*
Y6223000D02*
D03*
Y6477000D02*
D03*
Y6731000D02*
D03*
X3429000Y3175000D02*
D03*
Y3429000D02*
D03*
Y3683000D02*
D03*
Y3937000D02*
D03*
Y4191000D02*
D03*
Y4445000D02*
D03*
Y4699000D02*
D03*
Y4953000D02*
D03*
Y5207000D02*
D03*
Y5461000D02*
D03*
Y5715000D02*
D03*
Y5969000D02*
D03*
X7239000Y3175000D02*
D03*
Y3429000D02*
D03*
Y3683000D02*
D03*
Y3937000D02*
D03*
Y4191000D02*
D03*
Y4445000D02*
D03*
Y4699000D02*
D03*
Y4953000D02*
D03*
Y5207000D02*
D03*
Y5461000D02*
D03*
Y5715000D02*
D03*
Y5969000D02*
D03*
X3937000Y3175000D02*
D03*
Y3429000D02*
D03*
Y3683000D02*
D03*
Y3937000D02*
D03*
Y4191000D02*
D03*
Y4445000D02*
D03*
Y4699000D02*
D03*
Y4953000D02*
D03*
Y5207000D02*
D03*
Y5461000D02*
D03*
Y5715000D02*
D03*
Y5969000D02*
D03*
Y6223000D02*
D03*
Y6477000D02*
D03*
Y6731000D02*
D03*
X7747000Y3175000D02*
D03*
Y3429000D02*
D03*
Y3683000D02*
D03*
Y3937000D02*
D03*
Y4191000D02*
D03*
Y4445000D02*
D03*
Y4699000D02*
D03*
Y4953000D02*
D03*
Y5207000D02*
D03*
Y5461000D02*
D03*
Y5715000D02*
D03*
Y5969000D02*
D03*
Y6223000D02*
D03*
Y6477000D02*
D03*
Y6731000D02*
D03*
D35*
X11684000Y1270000D02*
D03*
X11303000Y6477000D02*
D03*
X11557000Y6985000D02*
D03*
X1016000Y1270000D02*
D03*
X4826000D02*
D03*
X8636000D02*
D03*
X4064000D02*
D03*
X7874000D02*
D03*
X3683000Y6477000D02*
D03*
X7493000Y6477000D02*
D03*
X889000Y6985000D02*
D03*
X4699000D02*
D03*
X8509000D02*
D03*
X1397000D02*
D03*
X5207000D02*
D03*
X9017000D02*
D03*
X3937000D02*
D03*
X7747000Y6985000D02*
D03*
D36*
X10922000Y7366000D02*
D03*
X3302000Y2794000D02*
D03*
X7112000D02*
D03*
X10922000D02*
D03*
X1524000D02*
D03*
X5334000D02*
D03*
X9144000D02*
D03*
X1524000Y7366000D02*
D03*
X5334000D02*
D03*
X9144000D02*
D03*
X3302000D02*
D03*
X7112000D02*
D03*
D37*
X11430000Y762000D02*
D03*
Y254000D02*
D03*
X10922000D02*
D03*
Y762000D02*
D03*
X1524000D02*
D03*
Y254000D02*
D03*
X1016000D02*
D03*
Y762000D02*
D03*
X5334000D02*
D03*
Y254000D02*
D03*
X4826000D02*
D03*
Y762000D02*
D03*
X9144000D02*
D03*
Y254000D02*
D03*
X8636000D02*
D03*
Y762000D02*
D03*
X3810000D02*
D03*
Y254000D02*
D03*
X3302000D02*
D03*
Y762000D02*
D03*
X7620000D02*
D03*
Y254000D02*
D03*
X7112000D02*
D03*
Y762000D02*
D03*
D38*
X11176000Y508000D02*
D03*
X1270000D02*
D03*
X5080000D02*
D03*
X8890000D02*
D03*
X3556000D02*
D03*
X7366000D02*
D03*
%TF.MD5,922fb562e22f8cef20375f01daf8e60d*%
M02*
