%TF.GenerationSoftware,Altium Limited,Altium Designer,23.11.1 (41)*%
G04 Layer_Color=65535*
%FSLAX45Y45*%
%MOMM*%
%TF.SameCoordinates,5324538C-4B84-4F37-AFBE-1FD82F1EBFC5*%
%TF.FilePolarity,Positive*%
%TF.FileFunction,Legend,Top*%
%TF.Part,Single*%
G01*
G75*
%TA.AperFunction,NonConductor*%
%ADD13C,0.20320*%
%ADD27C,0.25000*%
%ADD28C,0.20000*%
%ADD29C,0.25400*%
%ADD30C,0.12000*%
%ADD31C,0.22860*%
%ADD32C,0.30480*%
G36*
X12183346Y2965988D02*
X12311049D01*
Y2914907D01*
X12302536D01*
Y2906393D01*
X11996047D01*
Y2914907D01*
X11987534D01*
Y3093692D01*
X12047129D01*
Y2974502D01*
Y2965988D01*
X12123751D01*
Y3085178D01*
X12132264D01*
Y3093692D01*
X12183346D01*
Y2965988D01*
D02*
G37*
G36*
X12047129Y2802584D02*
X12302536D01*
Y2794070D01*
X12311049D01*
Y2742989D01*
X12047129D01*
Y2725962D01*
Y2717448D01*
Y2657853D01*
X11987534D01*
Y2879206D01*
X11996047D01*
Y2887720D01*
X12047129D01*
Y2802584D01*
D02*
G37*
G36*
X12242941Y2649340D02*
X12251454D01*
Y2640826D01*
X12259968D01*
Y2632312D01*
X12268481D01*
Y2623799D01*
X12276995D01*
Y2615285D01*
X12285509D01*
Y2606772D01*
X12294022D01*
Y2589745D01*
X12302536D01*
Y2564204D01*
X12311049D01*
Y2470555D01*
X12302536D01*
Y2445014D01*
X12294022D01*
Y2427987D01*
X12285509D01*
Y2419473D01*
X12276995D01*
Y2410960D01*
X12268481D01*
Y2402446D01*
X12259968D01*
Y2393932D01*
X12251454D01*
Y2385419D01*
X12234427D01*
Y2376905D01*
X12225914D01*
Y2368392D01*
X12200373D01*
Y2359878D01*
X12098210D01*
Y2368392D01*
X12081183D01*
Y2376905D01*
X12064156D01*
Y2385419D01*
X12047129D01*
Y2393932D01*
X12038615D01*
Y2402446D01*
X12030101D01*
Y2410960D01*
X12021588D01*
Y2419473D01*
X12013074D01*
Y2436500D01*
X12004561D01*
Y2453527D01*
X11996047D01*
Y2479068D01*
X11987534D01*
Y2564204D01*
X11996047D01*
Y2581231D01*
X12004561D01*
Y2606772D01*
X12013074D01*
Y2615285D01*
X12021588D01*
Y2623799D01*
X12030101D01*
Y2632312D01*
X12038615D01*
Y2640826D01*
X12047129D01*
Y2649340D01*
X12055642D01*
Y2657853D01*
X12064156D01*
Y2649340D01*
X12072669D01*
Y2632312D01*
X12081183D01*
Y2623799D01*
X12089696D01*
Y2606772D01*
X12081183D01*
Y2598258D01*
X12072669D01*
Y2589745D01*
X12064156D01*
Y2581231D01*
X12055642D01*
Y2564204D01*
X12047129D01*
Y2538663D01*
X12038615D01*
Y2496095D01*
X12047129D01*
Y2470555D01*
X12055642D01*
Y2453527D01*
X12064156D01*
Y2445014D01*
X12072669D01*
Y2436500D01*
X12081183D01*
Y2427987D01*
X12098210D01*
Y2419473D01*
X12123751D01*
Y2410960D01*
X12174832D01*
Y2419473D01*
X12200373D01*
Y2427987D01*
X12217400D01*
Y2436500D01*
X12225914D01*
Y2445014D01*
X12234427D01*
Y2453527D01*
X12242941D01*
Y2470555D01*
X12251454D01*
Y2487582D01*
X12259968D01*
Y2547177D01*
X12251454D01*
Y2572717D01*
X12242941D01*
Y2581231D01*
X12234427D01*
Y2589745D01*
X12225914D01*
Y2598258D01*
X12217400D01*
Y2606772D01*
X12208886D01*
Y2615285D01*
X12217400D01*
Y2632312D01*
X12225914D01*
Y2649340D01*
X12234427D01*
Y2657853D01*
X12242941D01*
Y2649340D01*
D02*
G37*
G36*
X12217400Y2172579D02*
X12234427D01*
Y2181093D01*
X12251454D01*
Y2198120D01*
X12259968D01*
Y2223661D01*
X12268481D01*
Y2249201D01*
X12259968D01*
Y2274742D01*
X12251454D01*
Y2283256D01*
X12242941D01*
Y2308797D01*
X12251454D01*
Y2325824D01*
X12259968D01*
Y2334337D01*
X12268481D01*
Y2325824D01*
X12276995D01*
Y2317310D01*
X12285509D01*
Y2308797D01*
X12294022D01*
Y2300283D01*
X12302536D01*
Y2274742D01*
X12311049D01*
Y2189606D01*
X12302536D01*
Y2172579D01*
X12294022D01*
Y2155552D01*
X12285509D01*
Y2147039D01*
X12276995D01*
Y2138525D01*
X12268481D01*
Y2130011D01*
X12251454D01*
Y2121498D01*
X12225914D01*
Y2112984D01*
X12157805D01*
Y2121498D01*
X12140778D01*
Y2130011D01*
X12123751D01*
Y2138525D01*
X12115237D01*
Y2147039D01*
X12106724D01*
Y2155552D01*
X12098210D01*
Y2164066D01*
X12089696D01*
Y2181093D01*
X12081183D01*
Y2206634D01*
X12072669D01*
Y2249201D01*
X12081183D01*
Y2283256D01*
X12089696D01*
Y2291769D01*
X12098210D01*
Y2300283D01*
X12106724D01*
Y2317310D01*
X12123751D01*
Y2325824D01*
X12132264D01*
Y2334337D01*
X12157805D01*
Y2342851D01*
X12217400D01*
Y2172579D01*
D02*
G37*
G36*
X12311049Y2002308D02*
X11987534D01*
Y2019335D01*
X12311049D01*
Y2002308D01*
D02*
G37*
G36*
X12174832Y1891350D02*
X12191859D01*
Y1882836D01*
X12208886D01*
Y1874323D01*
X12225914D01*
Y1865809D01*
X12234427D01*
Y1857296D01*
X12251454D01*
Y1848782D01*
X12311049D01*
Y1823241D01*
X12251454D01*
Y1814728D01*
X12234427D01*
Y1806214D01*
X12217400D01*
Y1797701D01*
X12200373D01*
Y1789187D01*
X12191859D01*
Y1780674D01*
X12174832D01*
Y1772160D01*
X12191859D01*
Y1729592D01*
X12311049D01*
Y1695538D01*
X12191859D01*
Y1661484D01*
X12157805D01*
Y1763646D01*
X12166319D01*
Y1780674D01*
X12157805D01*
Y1806214D01*
X12166319D01*
Y1814728D01*
X12183346D01*
Y1823241D01*
X12200373D01*
Y1831755D01*
X12217400D01*
Y1840269D01*
X12208886D01*
Y1848782D01*
X12191859D01*
Y1857296D01*
X12174832D01*
Y1865809D01*
X12166319D01*
Y1874323D01*
X12157805D01*
Y1899864D01*
X12174832D01*
Y1891350D01*
D02*
G37*
G36*
X12311049Y1610402D02*
X12166319D01*
Y1618916D01*
X12157805D01*
Y1644456D01*
X12311049D01*
Y1610402D01*
D02*
G37*
G36*
X12285509Y1584861D02*
X12302536D01*
Y1567834D01*
X12311049D01*
Y1508239D01*
X12302536D01*
Y1499726D01*
X12294022D01*
Y1491212D01*
X12285509D01*
Y1482699D01*
X12157805D01*
Y1508239D01*
X12166319D01*
Y1516753D01*
X12276995D01*
Y1559321D01*
X12166319D01*
Y1567834D01*
X12157805D01*
Y1593375D01*
X12285509D01*
Y1584861D01*
D02*
G37*
G36*
X12311049Y1431617D02*
X12302536D01*
Y1423104D01*
X12285509D01*
Y1414590D01*
X12276995D01*
Y1406076D01*
X12259968D01*
Y1397563D01*
X12251454D01*
Y1389049D01*
X12234427D01*
Y1380536D01*
X12311049D01*
Y1346481D01*
X12157805D01*
Y1363509D01*
X12166319D01*
Y1372022D01*
X12174832D01*
Y1380536D01*
X12183346D01*
Y1389049D01*
X12200373D01*
Y1397563D01*
X12208886D01*
Y1406076D01*
X12217400D01*
Y1414590D01*
X12234427D01*
Y1423104D01*
X12166319D01*
Y1431617D01*
X12157805D01*
Y1457158D01*
X12311049D01*
Y1431617D01*
D02*
G37*
G36*
X12132264Y1278373D02*
X11987534D01*
Y1372022D01*
X12021588D01*
Y1312427D01*
X12047129D01*
Y1372022D01*
X12072669D01*
Y1312427D01*
X12106724D01*
Y1372022D01*
X12132264D01*
Y1278373D01*
D02*
G37*
G36*
X12311049Y1235805D02*
X12157805D01*
Y1320941D01*
X12166319D01*
Y1329454D01*
X12191859D01*
Y1269859D01*
X12217400D01*
Y1320941D01*
X12251454D01*
Y1269859D01*
X12276995D01*
Y1320941D01*
X12285509D01*
Y1329454D01*
X12311049D01*
Y1235805D01*
D02*
G37*
G36*
X12132264D02*
X12123751D01*
Y1227291D01*
X12115237D01*
Y1218778D01*
X12098210D01*
Y1210264D01*
X12081183D01*
Y1193237D01*
X12132264D01*
Y1159183D01*
X11987534D01*
Y1235805D01*
X11996047D01*
Y1252832D01*
X12013074D01*
Y1261346D01*
X12064156D01*
Y1252832D01*
X12072669D01*
Y1244319D01*
X12098210D01*
Y1252832D01*
X12106724D01*
Y1261346D01*
X12123751D01*
Y1269859D01*
X12132264D01*
Y1235805D01*
D02*
G37*
G36*
X12268481Y1210264D02*
X12285509D01*
Y1201751D01*
X12294022D01*
Y1193237D01*
X12302536D01*
Y1176210D01*
X12311049D01*
Y1116615D01*
X12302536D01*
Y1099588D01*
X12294022D01*
Y1091074D01*
X12285509D01*
Y1082561D01*
X12276995D01*
Y1074047D01*
X12251454D01*
Y1065534D01*
X12217400D01*
Y1074047D01*
X12200373D01*
Y1082561D01*
X12183346D01*
Y1091074D01*
X12174832D01*
Y1108101D01*
X12166319D01*
Y1133642D01*
X12157805D01*
Y1167696D01*
X12166319D01*
Y1184724D01*
X12174832D01*
Y1193237D01*
X12183346D01*
Y1201751D01*
X12191859D01*
Y1210264D01*
X12200373D01*
Y1193237D01*
X12208886D01*
Y1176210D01*
X12200373D01*
Y1159183D01*
X12191859D01*
Y1125129D01*
X12200373D01*
Y1116615D01*
X12208886D01*
Y1108101D01*
X12217400D01*
Y1099588D01*
X12259968D01*
Y1108101D01*
X12268481D01*
Y1116615D01*
X12276995D01*
Y1176210D01*
X12268481D01*
Y1184724D01*
X12259968D01*
Y1142156D01*
X12225914D01*
Y1159183D01*
Y1167696D01*
Y1218778D01*
X12268481D01*
Y1210264D01*
D02*
G37*
G36*
X12021588Y1108101D02*
X12132264D01*
Y1074047D01*
X12021588D01*
Y1039993D01*
X12013074D01*
Y1031479D01*
X11987534D01*
Y1142156D01*
X12021588D01*
Y1108101D01*
D02*
G37*
G36*
X12132264Y988911D02*
X11987534D01*
Y1022966D01*
X12132264D01*
Y988911D01*
D02*
G37*
G36*
X12311049Y1022966D02*
X12302536D01*
Y1014452D01*
X12285509D01*
Y1005939D01*
X12276995D01*
Y997425D01*
X12259968D01*
Y988911D01*
X12251454D01*
Y980398D01*
X12234427D01*
Y971884D01*
X12311049D01*
Y937830D01*
X12157805D01*
Y954857D01*
X12166319D01*
Y963371D01*
X12174832D01*
Y971884D01*
X12183346D01*
Y980398D01*
X12191859D01*
Y988911D01*
X12208886D01*
Y997425D01*
X12217400D01*
Y1005939D01*
X12234427D01*
Y1014452D01*
X12166319D01*
Y1022966D01*
X12157805D01*
Y1048506D01*
X12311049D01*
Y1022966D01*
D02*
G37*
G36*
Y827153D02*
X12157805D01*
Y912289D01*
X12166319D01*
Y920803D01*
X12191859D01*
Y861208D01*
X12217400D01*
Y912289D01*
X12251454D01*
Y861208D01*
X12276995D01*
Y920803D01*
X12311049D01*
Y827153D01*
D02*
G37*
G36*
X12132264Y937830D02*
X12055642D01*
Y929316D01*
X12064156D01*
Y920803D01*
X12081183D01*
Y912289D01*
X12098210D01*
Y903776D01*
X12106724D01*
Y895262D01*
X12098210D01*
Y886749D01*
X12089696D01*
Y878235D01*
X12072669D01*
Y869721D01*
X12055642D01*
Y861208D01*
X12132264D01*
Y827153D01*
X11987534D01*
Y861208D01*
X11996047D01*
Y869721D01*
X12013074D01*
Y878235D01*
X12030101D01*
Y886749D01*
X12038615D01*
Y895262D01*
X12047129D01*
Y903776D01*
X12038615D01*
Y912289D01*
X12021588D01*
Y920803D01*
X12004561D01*
Y929316D01*
X11996047D01*
Y937830D01*
X11987534D01*
Y971884D01*
X12132264D01*
Y937830D01*
D02*
G37*
G36*
X12311049Y588773D02*
Y580260D01*
Y444043D01*
X12242941D01*
Y767558D01*
X12311049D01*
Y588773D01*
D02*
G37*
G36*
X12183346Y444043D02*
X12115237D01*
Y724990D01*
Y733504D01*
Y767558D01*
X12183346D01*
Y444043D01*
D02*
G37*
G36*
X12055642D02*
X11987534D01*
Y767558D01*
X12055642D01*
Y444043D01*
D02*
G37*
G36*
X12311049Y316339D02*
X11987534D01*
Y384448D01*
X12311049D01*
Y316339D01*
D02*
G37*
G36*
Y248230D02*
Y188635D01*
X11987534D01*
Y256744D01*
X12311049D01*
Y248230D01*
D02*
G37*
G36*
Y60932D02*
X11987534D01*
Y129040D01*
X12311049D01*
Y60932D01*
D02*
G37*
%LPC*%
G36*
X12174832Y2291769D02*
X12166319D01*
Y2283256D01*
X12149291D01*
Y2274742D01*
X12140778D01*
Y2266229D01*
X12132264D01*
Y2257715D01*
X12123751D01*
Y2206634D01*
X12132264D01*
Y2189606D01*
X12140778D01*
Y2181093D01*
X12149291D01*
Y2172579D01*
X12174832D01*
Y2291769D01*
D02*
G37*
G36*
X12038615Y1235805D02*
X12030101D01*
Y1227291D01*
X12021588D01*
Y1218778D01*
X12013074D01*
Y1193237D01*
X12055642D01*
Y1227291D01*
X12038615D01*
Y1235805D01*
D02*
G37*
%LPD*%
D13*
X10208000Y508000D02*
G03*
X10208000Y508000I-175000J0D01*
G01*
X2588000D02*
G03*
X2588000Y508000I-175000J0D01*
G01*
X6398000D02*
G03*
X6398000Y508000I-175000J0D01*
G01*
X9740900Y198000D02*
X10033000D01*
X9740900D02*
Y818000D01*
X10033000D01*
Y198000D02*
X10325100D01*
Y818000D01*
X10033000D02*
X10325100D01*
X2120900Y198000D02*
X2413000D01*
X2120900D02*
Y818000D01*
X2413000D01*
Y198000D02*
X2705100D01*
Y818000D01*
X2413000D02*
X2705100D01*
X5930900Y198000D02*
X6223000D01*
X5930900D02*
Y818000D01*
X6223000D01*
Y198000D02*
X6515100D01*
Y818000D01*
X6223000D02*
X6515100D01*
X96520Y2762980D02*
Y2813764D01*
X121912Y2839156D01*
X147303Y2813764D01*
Y2762980D01*
Y2801068D01*
X96520D01*
X172695Y2762980D02*
Y2839156D01*
X210783D01*
X223479Y2826460D01*
Y2801068D01*
X210783Y2788372D01*
X172695D01*
X198087D02*
X223479Y2762980D01*
X299654Y2839156D02*
X248871D01*
Y2762980D01*
X299654D01*
X248871Y2801068D02*
X274263D01*
X375830Y2839156D02*
X325046D01*
Y2801068D01*
X350438D01*
X325046D01*
Y2762980D01*
X477397D02*
X502789D01*
X490093D01*
Y2839156D01*
X477397Y2826460D01*
X540876Y2839156D02*
Y2788372D01*
X566268Y2762980D01*
X591660Y2788372D01*
Y2839156D01*
X617052Y2826460D02*
X629748Y2839156D01*
X655139D01*
X667835Y2826460D01*
Y2813764D01*
X655139Y2801068D01*
X667835Y2788372D01*
Y2775676D01*
X655139Y2762980D01*
X629748D01*
X617052Y2775676D01*
Y2788372D01*
X629748Y2801068D01*
X617052Y2813764D01*
Y2826460D01*
X629748Y2801068D02*
X655139D01*
X147303Y2698977D02*
X96520D01*
Y2660890D01*
X121912D01*
X96520D01*
Y2622802D01*
X172695Y2698977D02*
X223479D01*
X198087D01*
Y2622802D01*
X248871Y2698977D02*
Y2622802D01*
Y2660890D01*
X299654D01*
Y2698977D01*
Y2622802D01*
X325046D02*
Y2698977D01*
X363134D01*
X375830Y2686281D01*
Y2660890D01*
X363134Y2648194D01*
X325046D01*
X350438D02*
X375830Y2622802D01*
X477397Y2686281D02*
X490093Y2698977D01*
X515485D01*
X528180Y2686281D01*
Y2673585D01*
X515485Y2660890D01*
X502789D01*
X515485D01*
X528180Y2648194D01*
Y2635498D01*
X515485Y2622802D01*
X490093D01*
X477397Y2635498D01*
X553572Y2698977D02*
Y2648194D01*
X578964Y2622802D01*
X604356Y2648194D01*
Y2698977D01*
X629748Y2686281D02*
X642443Y2698977D01*
X667835D01*
X680531Y2686281D01*
Y2673585D01*
X667835Y2660890D01*
X655139D01*
X667835D01*
X680531Y2648194D01*
Y2635498D01*
X667835Y2622802D01*
X642443D01*
X629748Y2635498D01*
X147303Y2546103D02*
X134608Y2558799D01*
X109216D01*
X96520Y2546103D01*
Y2533407D01*
X109216Y2520711D01*
X134608D01*
X147303Y2508015D01*
Y2495319D01*
X134608Y2482623D01*
X109216D01*
X96520Y2495319D01*
X172695Y2558799D02*
Y2546103D01*
X198087Y2520711D01*
X223479Y2546103D01*
Y2558799D01*
X198087Y2520711D02*
Y2482623D01*
X299654Y2546103D02*
X286959Y2558799D01*
X261567D01*
X248871Y2546103D01*
Y2533407D01*
X261567Y2520711D01*
X286959D01*
X299654Y2508015D01*
Y2495319D01*
X286959Y2482623D01*
X261567D01*
X248871Y2495319D01*
X363134Y2558799D02*
X337742D01*
X325046Y2546103D01*
Y2495319D01*
X337742Y2482623D01*
X363134D01*
X375830Y2495319D01*
Y2546103D01*
X363134Y2558799D01*
X401221D02*
Y2495319D01*
X413917Y2482623D01*
X439309D01*
X452005Y2495319D01*
Y2558799D01*
X477397D02*
X528180D01*
X502789D01*
Y2482623D01*
X629748Y2558799D02*
Y2482623D01*
X667835D01*
X680531Y2495319D01*
Y2508015D01*
X667835Y2520711D01*
X629748D01*
X667835D01*
X680531Y2533407D01*
Y2546103D01*
X667835Y2558799D01*
X629748D01*
X705923Y2482623D02*
Y2533407D01*
X731315Y2558799D01*
X756706Y2533407D01*
Y2482623D01*
Y2520711D01*
X705923D01*
X782098Y2558799D02*
X832882D01*
X807490D01*
Y2482623D01*
X858274Y2558799D02*
X909057D01*
X883665D01*
Y2482623D01*
X96520Y2418620D02*
Y2367837D01*
X121912Y2342445D01*
X147303Y2367837D01*
Y2418620D01*
X172695D02*
Y2342445D01*
X210783D01*
X223479Y2355141D01*
Y2367837D01*
X210783Y2380532D01*
X172695D01*
X210783D01*
X223479Y2393228D01*
Y2405924D01*
X210783Y2418620D01*
X172695D01*
X248871D02*
Y2355141D01*
X261567Y2342445D01*
X286959D01*
X299654Y2355141D01*
Y2418620D01*
X375830Y2405924D02*
X363134Y2418620D01*
X337742D01*
X325046Y2405924D01*
Y2393228D01*
X337742Y2380532D01*
X363134D01*
X375830Y2367837D01*
Y2355141D01*
X363134Y2342445D01*
X337742D01*
X325046Y2355141D01*
X528180Y2418620D02*
X477397D01*
Y2380532D01*
X502789Y2393228D01*
X515485D01*
X528180Y2380532D01*
Y2355141D01*
X515485Y2342445D01*
X490093D01*
X477397Y2355141D01*
X553572Y2418620D02*
Y2367837D01*
X578964Y2342445D01*
X604356Y2367837D01*
Y2418620D01*
X629748Y2405924D02*
X642443Y2418620D01*
X667835D01*
X680531Y2405924D01*
Y2355141D01*
X667835Y2342445D01*
X642443D01*
X629748Y2355141D01*
Y2405924D01*
X11780503Y3200392D02*
X11767808Y3213088D01*
X11742416D01*
X11729720Y3200392D01*
Y3187696D01*
X11742416Y3175000D01*
X11767808D01*
X11780503Y3162304D01*
Y3149608D01*
X11767808Y3136912D01*
X11742416D01*
X11729720Y3149608D01*
X11805895Y3213088D02*
Y3136912D01*
X11843983D01*
X11856679Y3149608D01*
Y3200392D01*
X11843983Y3213088D01*
X11805895D01*
X11882071Y3136912D02*
Y3187696D01*
X11907463Y3213088D01*
X11932854Y3187696D01*
Y3136912D01*
Y3175000D01*
X11882071D01*
X11780503Y3454392D02*
X11767808Y3467088D01*
X11742416D01*
X11729720Y3454392D01*
Y3441696D01*
X11742416Y3429000D01*
X11767808D01*
X11780503Y3416304D01*
Y3403608D01*
X11767808Y3390912D01*
X11742416D01*
X11729720Y3403608D01*
X11856679Y3454392D02*
X11843983Y3467088D01*
X11818591D01*
X11805895Y3454392D01*
Y3403608D01*
X11818591Y3390912D01*
X11843983D01*
X11856679Y3403608D01*
X11882071Y3467088D02*
Y3390912D01*
X11932854D01*
X11780503Y3708392D02*
X11767808Y3721088D01*
X11742416D01*
X11729720Y3708392D01*
Y3657608D01*
X11742416Y3644912D01*
X11767808D01*
X11780503Y3657608D01*
Y3683000D01*
X11755112D01*
X11805895Y3644912D02*
Y3721088D01*
X11843983D01*
X11856679Y3708392D01*
Y3683000D01*
X11843983Y3670304D01*
X11805895D01*
X11882071Y3721088D02*
X11907463D01*
X11894767D01*
Y3644912D01*
X11882071D01*
X11907463D01*
X11983638Y3721088D02*
X11958246D01*
X11945550Y3708392D01*
Y3657608D01*
X11958246Y3644912D01*
X11983638D01*
X11996334Y3657608D01*
Y3708392D01*
X11983638Y3721088D01*
X11780503Y3962392D02*
X11767808Y3975088D01*
X11742416D01*
X11729720Y3962392D01*
Y3911608D01*
X11742416Y3898912D01*
X11767808D01*
X11780503Y3911608D01*
Y3937000D01*
X11755112D01*
X11805895Y3898912D02*
Y3975088D01*
X11843983D01*
X11856679Y3962392D01*
Y3937000D01*
X11843983Y3924304D01*
X11805895D01*
X11882071Y3975088D02*
X11907463D01*
X11894767D01*
Y3898912D01*
X11882071D01*
X11907463D01*
X11983638Y3975088D02*
X11958246D01*
X11945550Y3962392D01*
Y3911608D01*
X11958246Y3898912D01*
X11983638D01*
X11996334Y3911608D01*
Y3962392D01*
X11983638Y3975088D01*
X11780503Y4216392D02*
X11767808Y4229088D01*
X11742416D01*
X11729720Y4216392D01*
Y4203696D01*
X11742416Y4191000D01*
X11767808D01*
X11780503Y4178304D01*
Y4165608D01*
X11767808Y4152912D01*
X11742416D01*
X11729720Y4165608D01*
X11856679Y4216392D02*
X11843983Y4229088D01*
X11818591D01*
X11805895Y4216392D01*
Y4203696D01*
X11818591Y4191000D01*
X11843983D01*
X11856679Y4178304D01*
Y4165608D01*
X11843983Y4152912D01*
X11818591D01*
X11805895Y4165608D01*
X11780503Y4470392D02*
X11767808Y4483088D01*
X11742416D01*
X11729720Y4470392D01*
Y4457696D01*
X11742416Y4445000D01*
X11767808D01*
X11780503Y4432304D01*
Y4419608D01*
X11767808Y4406912D01*
X11742416D01*
X11729720Y4419608D01*
X11805895Y4483088D02*
Y4406912D01*
X11843983D01*
X11856679Y4419608D01*
Y4470392D01*
X11843983Y4483088D01*
X11805895D01*
X11882071D02*
X11907463D01*
X11894767D01*
Y4406912D01*
X11882071D01*
X11907463D01*
X11983638Y4483088D02*
X11958246D01*
X11945550Y4470392D01*
Y4419608D01*
X11958246Y4406912D01*
X11983638D01*
X11996334Y4419608D01*
Y4470392D01*
X11983638Y4483088D01*
X12072509Y4406912D02*
X12021726D01*
X12072509Y4457696D01*
Y4470392D01*
X12059813Y4483088D01*
X12034421D01*
X12021726Y4470392D01*
X11780503Y4724392D02*
X11767808Y4737088D01*
X11742416D01*
X11729720Y4724392D01*
Y4711696D01*
X11742416Y4699000D01*
X11767808D01*
X11780503Y4686304D01*
Y4673608D01*
X11767808Y4660912D01*
X11742416D01*
X11729720Y4673608D01*
X11805895Y4737088D02*
Y4660912D01*
X11843983D01*
X11856679Y4673608D01*
Y4724392D01*
X11843983Y4737088D01*
X11805895D01*
X11882071D02*
X11907463D01*
X11894767D01*
Y4660912D01*
X11882071D01*
X11907463D01*
X11983638Y4737088D02*
X11958246D01*
X11945550Y4724392D01*
Y4673608D01*
X11958246Y4660912D01*
X11983638D01*
X11996334Y4673608D01*
Y4724392D01*
X11983638Y4737088D01*
X12021726Y4724392D02*
X12034421Y4737088D01*
X12059813D01*
X12072509Y4724392D01*
Y4711696D01*
X12059813Y4699000D01*
X12047117D01*
X12059813D01*
X12072509Y4686304D01*
Y4673608D01*
X12059813Y4660912D01*
X12034421D01*
X12021726Y4673608D01*
X11729720Y4914912D02*
Y4991088D01*
X11755112Y4965696D01*
X11780503Y4991088D01*
Y4914912D01*
X11805895D02*
Y4991088D01*
X11843983D01*
X11856679Y4978392D01*
Y4953000D01*
X11843983Y4940304D01*
X11805895D01*
X11932854Y4978392D02*
X11920159Y4991088D01*
X11894767D01*
X11882071Y4978392D01*
Y4927608D01*
X11894767Y4914912D01*
X11920159D01*
X11932854Y4927608D01*
X11958246Y4978392D02*
X11970942Y4991088D01*
X11996334D01*
X12009030Y4978392D01*
Y4965696D01*
X11996334Y4953000D01*
X11983638D01*
X11996334D01*
X12009030Y4940304D01*
Y4927608D01*
X11996334Y4914912D01*
X11970942D01*
X11958246Y4927608D01*
X11729720Y5245088D02*
Y5168912D01*
X11767808D01*
X11780503Y5181608D01*
Y5194304D01*
X11767808Y5207000D01*
X11729720D01*
X11767808D01*
X11780503Y5219696D01*
Y5232392D01*
X11767808Y5245088D01*
X11729720D01*
X11805895D02*
Y5181608D01*
X11818591Y5168912D01*
X11843983D01*
X11856679Y5181608D01*
Y5245088D01*
X11882071D02*
X11932854D01*
X11907463D01*
Y5168912D01*
X11958246Y5245088D02*
X12009030D01*
X11983638D01*
Y5168912D01*
X12072509Y5245088D02*
X12047117D01*
X12034421Y5232392D01*
Y5181608D01*
X12047117Y5168912D01*
X12072509D01*
X12085205Y5181608D01*
Y5232392D01*
X12072509Y5245088D01*
X12110597Y5168912D02*
Y5245088D01*
X12161380Y5168912D01*
Y5245088D01*
X11729720Y5499088D02*
Y5448304D01*
X11755112Y5422912D01*
X11780503Y5448304D01*
Y5499088D01*
X11805895D02*
Y5422912D01*
X11843983D01*
X11856679Y5435608D01*
Y5448304D01*
X11843983Y5461000D01*
X11805895D01*
X11843983D01*
X11856679Y5473696D01*
Y5486392D01*
X11843983Y5499088D01*
X11805895D01*
X11882071D02*
Y5435608D01*
X11894767Y5422912D01*
X11920159D01*
X11932854Y5435608D01*
Y5499088D01*
X12009030Y5486392D02*
X11996334Y5499088D01*
X11970942D01*
X11958246Y5486392D01*
Y5473696D01*
X11970942Y5461000D01*
X11996334D01*
X12009030Y5448304D01*
Y5435608D01*
X11996334Y5422912D01*
X11970942D01*
X11958246Y5435608D01*
X11729720Y5676912D02*
Y5753088D01*
X11767808D01*
X11780503Y5740392D01*
Y5715000D01*
X11767808Y5702304D01*
X11729720D01*
X11856679Y5753088D02*
X11805895D01*
Y5715000D01*
X11831287D01*
X11805895D01*
Y5676912D01*
X11882071D02*
Y5753088D01*
X11932854Y5676912D01*
Y5753088D01*
X11958246Y5676912D02*
X11983638D01*
X11970942D01*
Y5753088D01*
X11958246Y5740392D01*
X11780503Y5994392D02*
X11767808Y6007088D01*
X11742416D01*
X11729720Y5994392D01*
Y5981696D01*
X11742416Y5969000D01*
X11767808D01*
X11780503Y5956304D01*
Y5943608D01*
X11767808Y5930912D01*
X11742416D01*
X11729720Y5943608D01*
X11805895Y6007088D02*
Y5994392D01*
X11831287Y5969000D01*
X11856679Y5994392D01*
Y6007088D01*
X11831287Y5969000D02*
Y5930912D01*
X11932854Y5994392D02*
X11920159Y6007088D01*
X11894767D01*
X11882071Y5994392D01*
Y5981696D01*
X11894767Y5969000D01*
X11920159D01*
X11932854Y5956304D01*
Y5943608D01*
X11920159Y5930912D01*
X11894767D01*
X11882071Y5943608D01*
X11996334Y6007088D02*
X11970942D01*
X11958246Y5994392D01*
Y5943608D01*
X11970942Y5930912D01*
X11996334D01*
X12009030Y5943608D01*
Y5994392D01*
X11996334Y6007088D01*
X12034421D02*
Y5943608D01*
X12047117Y5930912D01*
X12072509D01*
X12085205Y5943608D01*
Y6007088D01*
X12110597D02*
X12161380D01*
X12135989D01*
Y5930912D01*
X11780503Y6248392D02*
X11767808Y6261088D01*
X11742416D01*
X11729720Y6248392D01*
Y6197608D01*
X11742416Y6184912D01*
X11767808D01*
X11780503Y6197608D01*
Y6223000D01*
X11755112D01*
X11805895Y6184912D02*
Y6261088D01*
X11856679Y6184912D01*
Y6261088D01*
X11882071D02*
Y6184912D01*
X11920159D01*
X11932854Y6197608D01*
Y6248392D01*
X11920159Y6261088D01*
X11882071D01*
X11729720Y6515088D02*
Y6451608D01*
X11742416Y6438912D01*
X11767808D01*
X11780503Y6451608D01*
Y6515088D01*
X11856679Y6502392D02*
X11843983Y6515088D01*
X11818591D01*
X11805895Y6502392D01*
Y6489696D01*
X11818591Y6477000D01*
X11843983D01*
X11856679Y6464304D01*
Y6451608D01*
X11843983Y6438912D01*
X11818591D01*
X11805895Y6451608D01*
X11932854Y6515088D02*
X11882071D01*
Y6438912D01*
X11932854D01*
X11882071Y6477000D02*
X11907463D01*
X11958246Y6438912D02*
Y6515088D01*
X11996334D01*
X12009030Y6502392D01*
Y6477000D01*
X11996334Y6464304D01*
X11958246D01*
X11983638D02*
X12009030Y6438912D01*
X12034421D02*
X12059813D01*
X12047117D01*
Y6515088D01*
X12034421Y6502392D01*
X11729720Y6769088D02*
Y6705608D01*
X11742416Y6692912D01*
X11767808D01*
X11780503Y6705608D01*
Y6769088D01*
X11856679Y6756392D02*
X11843983Y6769088D01*
X11818591D01*
X11805895Y6756392D01*
Y6743696D01*
X11818591Y6731000D01*
X11843983D01*
X11856679Y6718304D01*
Y6705608D01*
X11843983Y6692912D01*
X11818591D01*
X11805895Y6705608D01*
X11932854Y6769088D02*
X11882071D01*
Y6692912D01*
X11932854D01*
X11882071Y6731000D02*
X11907463D01*
X11958246Y6692912D02*
Y6769088D01*
X11996334D01*
X12009030Y6756392D01*
Y6731000D01*
X11996334Y6718304D01*
X11958246D01*
X11983638D02*
X12009030Y6692912D01*
X12085205D02*
X12034421D01*
X12085205Y6743696D01*
Y6756392D01*
X12072509Y6769088D01*
X12047117D01*
X12034421Y6756392D01*
X11729720Y7023088D02*
Y6959608D01*
X11742416Y6946912D01*
X11767808D01*
X11780503Y6959608D01*
Y7023088D01*
X11856679Y7010392D02*
X11843983Y7023088D01*
X11818591D01*
X11805895Y7010392D01*
Y6997696D01*
X11818591Y6985000D01*
X11843983D01*
X11856679Y6972304D01*
Y6959608D01*
X11843983Y6946912D01*
X11818591D01*
X11805895Y6959608D01*
X11932854Y7023088D02*
X11882071D01*
Y6946912D01*
X11932854D01*
X11882071Y6985000D02*
X11907463D01*
X11958246Y6946912D02*
Y7023088D01*
X11996334D01*
X12009030Y7010392D01*
Y6985000D01*
X11996334Y6972304D01*
X11958246D01*
X11983638D02*
X12009030Y6946912D01*
X12034421Y7010392D02*
X12047117Y7023088D01*
X12072509D01*
X12085205Y7010392D01*
Y6997696D01*
X12072509Y6985000D01*
X12059813D01*
X12072509D01*
X12085205Y6972304D01*
Y6959608D01*
X12072509Y6946912D01*
X12047117D01*
X12034421Y6959608D01*
X563929Y3200392D02*
X551234Y3213088D01*
X525842D01*
X513146Y3200392D01*
Y3149608D01*
X525842Y3136912D01*
X551234D01*
X563929Y3149608D01*
Y3175000D01*
X538538D01*
X589321Y3136912D02*
Y3213088D01*
X640105Y3136912D01*
Y3213088D01*
X665497D02*
Y3136912D01*
X703584D01*
X716280Y3149608D01*
Y3200392D01*
X703584Y3213088D01*
X665497D01*
X208444Y3467088D02*
Y3403608D01*
X221140Y3390912D01*
X246532D01*
X259228Y3403608D01*
Y3467088D01*
X284620Y3390912D02*
Y3441696D01*
X310012Y3467088D01*
X335403Y3441696D01*
Y3390912D01*
Y3429000D01*
X284620D01*
X360795Y3390912D02*
Y3467088D01*
X398883D01*
X411579Y3454392D01*
Y3429000D01*
X398883Y3416304D01*
X360795D01*
X386187D02*
X411579Y3390912D01*
X436970Y3467088D02*
X487754D01*
X462362D01*
Y3390912D01*
X589321Y3467088D02*
X640105D01*
X614713D01*
Y3390912D01*
X665497Y3467088D02*
X716280Y3390912D01*
Y3467088D02*
X665497Y3390912D01*
X208444Y3721088D02*
Y3657608D01*
X221140Y3644912D01*
X246532D01*
X259228Y3657608D01*
Y3721088D01*
X284620Y3644912D02*
Y3695696D01*
X310012Y3721088D01*
X335403Y3695696D01*
Y3644912D01*
Y3683000D01*
X284620D01*
X360795Y3644912D02*
Y3721088D01*
X398883D01*
X411579Y3708392D01*
Y3683000D01*
X398883Y3670304D01*
X360795D01*
X386187D02*
X411579Y3644912D01*
X436970Y3721088D02*
X487754D01*
X462362D01*
Y3644912D01*
X589321D02*
Y3721088D01*
X627409D01*
X640105Y3708392D01*
Y3683000D01*
X627409Y3670304D01*
X589321D01*
X614713D02*
X640105Y3644912D01*
X665497Y3721088D02*
X716280Y3644912D01*
Y3721088D02*
X665497Y3644912D01*
X589321Y3975088D02*
Y3898912D01*
X627409D01*
X640105Y3911608D01*
Y3962392D01*
X627409Y3975088D01*
X589321D01*
X703584D02*
X678192D01*
X665497Y3962392D01*
Y3911608D01*
X678192Y3898912D01*
X703584D01*
X716280Y3911608D01*
Y3962392D01*
X703584Y3975088D01*
X614713Y4229088D02*
Y4152912D01*
X652801D01*
X665496Y4165608D01*
Y4216392D01*
X652801Y4229088D01*
X614713D01*
X690888D02*
X716280D01*
X703584D01*
Y4152912D01*
X690888D01*
X716280D01*
X487754Y4470392D02*
X475058Y4483088D01*
X449666D01*
X436970Y4470392D01*
Y4457696D01*
X449666Y4445000D01*
X475058D01*
X487754Y4432304D01*
Y4419608D01*
X475058Y4406912D01*
X449666D01*
X436970Y4419608D01*
X563929Y4470392D02*
X551234Y4483088D01*
X525842D01*
X513146Y4470392D01*
Y4419608D01*
X525842Y4406912D01*
X551234D01*
X563929Y4419608D01*
X589321Y4483088D02*
Y4406912D01*
X640105D01*
X665497Y4483088D02*
Y4406912D01*
Y4432304D01*
X716280Y4483088D01*
X678192Y4445000D01*
X716280Y4406912D01*
X513146Y4660912D02*
Y4737088D01*
X538538Y4711696D01*
X563929Y4737088D01*
Y4660912D01*
X589321D02*
Y4737088D01*
X627409D01*
X640105Y4724392D01*
Y4699000D01*
X627409Y4686304D01*
X589321D01*
X716280Y4724392D02*
X703584Y4737088D01*
X678192D01*
X665497Y4724392D01*
Y4673608D01*
X678192Y4660912D01*
X703584D01*
X716280Y4673608D01*
X462362Y4914912D02*
Y4991088D01*
X487754Y4965696D01*
X513146Y4991088D01*
Y4914912D01*
X538537D02*
Y4991088D01*
X576625D01*
X589321Y4978392D01*
Y4953000D01*
X576625Y4940304D01*
X538537D01*
X665496Y4978392D02*
X652801Y4991088D01*
X627409D01*
X614713Y4978392D01*
Y4927608D01*
X627409Y4914912D01*
X652801D01*
X665496Y4927608D01*
X690888Y4914912D02*
X716280D01*
X703584D01*
Y4991088D01*
X690888Y4978392D01*
X513146Y5245088D02*
X563929D01*
X538538D01*
Y5168912D01*
X640105Y5232392D02*
X627409Y5245088D01*
X602017D01*
X589321Y5232392D01*
Y5181608D01*
X602017Y5168912D01*
X627409D01*
X640105Y5181608D01*
X665497Y5245088D02*
Y5168912D01*
Y5194304D01*
X716280Y5245088D01*
X678192Y5207000D01*
X716280Y5168912D01*
X513146Y5499088D02*
X563929D01*
X538538D01*
Y5422912D01*
X589321D02*
Y5499088D01*
X614713Y5473696D01*
X640105Y5499088D01*
Y5422912D01*
X716280Y5486392D02*
X703584Y5499088D01*
X678192D01*
X665497Y5486392D01*
Y5473696D01*
X678192Y5461000D01*
X703584D01*
X716280Y5448304D01*
Y5435608D01*
X703584Y5422912D01*
X678192D01*
X665497Y5435608D01*
X487754Y5676912D02*
Y5753088D01*
X449666Y5715000D01*
X500450D01*
X525842Y5676912D02*
Y5727696D01*
X551234Y5753088D01*
X576625Y5727696D01*
Y5676912D01*
Y5715000D01*
X525842D01*
X602017Y5753088D02*
X627409D01*
X614713D01*
Y5676912D01*
X602017D01*
X627409D01*
X665497D02*
Y5753088D01*
X716280Y5676912D01*
Y5753088D01*
X449666Y5994392D02*
X462362Y6007088D01*
X487754D01*
X500450Y5994392D01*
Y5981696D01*
X487754Y5969000D01*
X475058D01*
X487754D01*
X500450Y5956304D01*
Y5943608D01*
X487754Y5930912D01*
X462362D01*
X449666Y5943608D01*
X525842Y5930912D02*
Y5981696D01*
X551234Y6007088D01*
X576625Y5981696D01*
Y5930912D01*
Y5969000D01*
X525842D01*
X602017Y6007088D02*
X627409D01*
X614713D01*
Y5930912D01*
X602017D01*
X627409D01*
X665497D02*
Y6007088D01*
X716280Y5930912D01*
Y6007088D01*
X563929Y6248392D02*
X551234Y6261088D01*
X525842D01*
X513146Y6248392D01*
Y6197608D01*
X525842Y6184912D01*
X551234D01*
X563929Y6197608D01*
Y6223000D01*
X538538D01*
X589321Y6184912D02*
Y6261088D01*
X640105Y6184912D01*
Y6261088D01*
X665497D02*
Y6184912D01*
X703584D01*
X716280Y6197608D01*
Y6248392D01*
X703584Y6261088D01*
X665497D01*
X144965Y6438912D02*
X170357D01*
X157661D01*
Y6515088D01*
X144965Y6502392D01*
X208444Y6515088D02*
Y6464304D01*
X233836Y6438912D01*
X259228Y6464304D01*
Y6515088D01*
X284620Y6502392D02*
X297316Y6515088D01*
X322708D01*
X335403Y6502392D01*
Y6489696D01*
X322708Y6477000D01*
X335403Y6464304D01*
Y6451608D01*
X322708Y6438912D01*
X297316D01*
X284620Y6451608D01*
Y6464304D01*
X297316Y6477000D01*
X284620Y6489696D01*
Y6502392D01*
X297316Y6477000D02*
X322708D01*
X436970Y6438912D02*
Y6489696D01*
X462362Y6515088D01*
X487754Y6489696D01*
Y6438912D01*
Y6477000D01*
X436970D01*
X513146Y6438912D02*
Y6515088D01*
X551234D01*
X563929Y6502392D01*
Y6477000D01*
X551234Y6464304D01*
X513146D01*
X538538D02*
X563929Y6438912D01*
X640105Y6515088D02*
X589321D01*
Y6438912D01*
X640105D01*
X589321Y6477000D02*
X614713D01*
X716280Y6515088D02*
X665497D01*
Y6477000D01*
X690888D01*
X665497D01*
Y6438912D01*
X132269Y6756392D02*
X144965Y6769088D01*
X170357D01*
X183052Y6756392D01*
Y6743696D01*
X170357Y6731000D01*
X157661D01*
X170357D01*
X183052Y6718304D01*
Y6705608D01*
X170357Y6692912D01*
X144965D01*
X132269Y6705608D01*
X208444Y6769088D02*
Y6718304D01*
X233836Y6692912D01*
X259228Y6718304D01*
Y6769088D01*
X284620Y6756392D02*
X297316Y6769088D01*
X322708D01*
X335403Y6756392D01*
Y6743696D01*
X322708Y6731000D01*
X310012D01*
X322708D01*
X335403Y6718304D01*
Y6705608D01*
X322708Y6692912D01*
X297316D01*
X284620Y6705608D01*
X436970Y6769088D02*
Y6718304D01*
X462362Y6692912D01*
X487754Y6718304D01*
Y6769088D01*
X513146Y6692912D02*
Y6769088D01*
X551234D01*
X563929Y6756392D01*
Y6731000D01*
X551234Y6718304D01*
X513146D01*
X538538D02*
X563929Y6692912D01*
X640105Y6769088D02*
X589321D01*
Y6692912D01*
X640105D01*
X589321Y6731000D02*
X614713D01*
X716280Y6756392D02*
X703584Y6769088D01*
X678192D01*
X665497Y6756392D01*
Y6705608D01*
X678192Y6692912D01*
X703584D01*
X716280Y6705608D01*
Y6731000D01*
X690888D01*
X436970Y6946912D02*
Y7023088D01*
X475058D01*
X487754Y7010392D01*
Y6985000D01*
X475058Y6972304D01*
X436970D01*
X462362D02*
X487754Y6946912D01*
X563929Y7010392D02*
X551234Y7023088D01*
X525842D01*
X513146Y7010392D01*
Y6997696D01*
X525842Y6985000D01*
X551234D01*
X563929Y6972304D01*
Y6959608D01*
X551234Y6946912D01*
X525842D01*
X513146Y6959608D01*
X589321Y7023088D02*
X640105D01*
X614713D01*
Y6946912D01*
X665497D02*
Y7023088D01*
X716280Y6946912D01*
Y7023088D01*
X4096437Y8599831D02*
Y8790269D01*
X4191656D01*
X4223395Y8758529D01*
Y8695050D01*
X4191656Y8663310D01*
X4096437D01*
X4286875Y8599831D02*
Y8790269D01*
X4382094D01*
X4413834Y8758529D01*
Y8695050D01*
X4382094Y8663310D01*
X4286875D01*
X4350355D02*
X4413834Y8599831D01*
X4604272Y8790269D02*
X4540793D01*
X4572533D01*
Y8631570D01*
X4540793Y8599831D01*
X4509053D01*
X4477314Y8631570D01*
X4667752Y8695050D02*
X4794711D01*
X4985150Y8790269D02*
X4858191D01*
Y8695050D01*
X4921670D01*
X4858191D01*
Y8599831D01*
X5048629Y8790269D02*
Y8758529D01*
X5112109Y8695050D01*
X5175588Y8758529D01*
Y8790269D01*
X5112109Y8695050D02*
Y8599831D01*
X5366027D02*
X5239068D01*
X5366027Y8726790D01*
Y8758529D01*
X5334287Y8790269D01*
X5270808D01*
X5239068Y8758529D01*
X5429506D02*
X5461246Y8790269D01*
X5524726D01*
X5556465Y8758529D01*
Y8726790D01*
X5524726Y8695050D01*
X5492986D01*
X5524726D01*
X5556465Y8663310D01*
Y8631570D01*
X5524726Y8599831D01*
X5461246D01*
X5429506Y8631570D01*
X5619945Y8695050D02*
X5746904D01*
X5810383Y8758529D02*
X5842123Y8790269D01*
X5905603D01*
X5937342Y8758529D01*
Y8726790D01*
X5905603Y8695050D01*
X5873863D01*
X5905603D01*
X5937342Y8663310D01*
Y8631570D01*
X5905603Y8599831D01*
X5842123D01*
X5810383Y8631570D01*
X6000822D02*
X6032562Y8599831D01*
X6096041D01*
X6127781Y8631570D01*
Y8758529D01*
X6096041Y8790269D01*
X6032562D01*
X6000822Y8758529D01*
Y8726790D01*
X6032562Y8695050D01*
X6127781D01*
X6318219Y8790269D02*
X6254740Y8758529D01*
X6191260Y8695050D01*
Y8631570D01*
X6223000Y8599831D01*
X6286480D01*
X6318219Y8631570D01*
Y8663310D01*
X6286480Y8695050D01*
X6191260D01*
X6381699Y8568091D02*
X6508658D01*
X6699096Y8758529D02*
X6667357Y8790269D01*
X6603877D01*
X6572137Y8758529D01*
Y8726790D01*
X6603877Y8695050D01*
X6667357D01*
X6699096Y8663310D01*
Y8631570D01*
X6667357Y8599831D01*
X6603877D01*
X6572137Y8631570D01*
X6762576Y8599831D02*
X6826055D01*
X6794316D01*
Y8726790D01*
X6762576D01*
X6921275Y8599831D02*
X6984754D01*
X6953015D01*
Y8790269D01*
X6921275D01*
X7079973Y8599831D02*
Y8790269D01*
Y8663310D02*
X7175193Y8726790D01*
X7079973Y8663310D02*
X7175193Y8599831D01*
X7270412D02*
X7365631D01*
X7397371Y8631570D01*
X7365631Y8663310D01*
X7302152D01*
X7270412Y8695050D01*
X7302152Y8726790D01*
X7397371D01*
X7587809D02*
X7492590D01*
X7460850Y8695050D01*
Y8631570D01*
X7492590Y8599831D01*
X7587809D01*
X7651289Y8726790D02*
Y8599831D01*
Y8663310D01*
X7683029Y8695050D01*
X7714768Y8726790D01*
X7746508D01*
X7936947Y8599831D02*
X7873467D01*
X7841728Y8631570D01*
Y8695050D01*
X7873467Y8726790D01*
X7936947D01*
X7968686Y8695050D01*
Y8663310D01*
X7841728D01*
X8127385Y8599831D02*
X8063906D01*
X8032166Y8631570D01*
Y8695050D01*
X8063906Y8726790D01*
X8127385D01*
X8159125Y8695050D01*
Y8663310D01*
X8032166D01*
X8222605Y8599831D02*
Y8726790D01*
X8317824D01*
X8349563Y8695050D01*
Y8599831D01*
X4222781Y3111521D02*
X4265100D01*
X4243940D01*
Y3238479D01*
X4222781Y3217320D01*
X4413219Y3238479D02*
X4370900Y3217320D01*
X4328580Y3175000D01*
Y3132680D01*
X4349740Y3111521D01*
X4392059D01*
X4413219Y3132680D01*
Y3153840D01*
X4392059Y3175000D01*
X4328580D01*
X8032781Y3111521D02*
X8075100D01*
X8053940D01*
Y3238479D01*
X8032781Y3217320D01*
X8223219Y3238479D02*
X8180900Y3217320D01*
X8138580Y3175000D01*
Y3132680D01*
X8159740Y3111521D01*
X8202059D01*
X8223219Y3132680D01*
Y3153840D01*
X8202059Y3175000D01*
X8138580D01*
X4296840Y6921521D02*
X4339160D01*
X4318000D01*
Y7048479D01*
X4296840Y7027320D01*
X8106840Y6921521D02*
X8149160D01*
X8128000D01*
Y7048479D01*
X8106840Y7027320D01*
X9186607Y1214079D02*
Y1087120D01*
X9250087D01*
X9271247Y1108280D01*
Y1129440D01*
X9250087Y1150599D01*
X9186607D01*
X9250087D01*
X9271247Y1171759D01*
Y1192919D01*
X9250087Y1214079D01*
X9186607D01*
X9334726Y1087120D02*
X9377046D01*
X9398206Y1108280D01*
Y1150599D01*
X9377046Y1171759D01*
X9334726D01*
X9313566Y1150599D01*
Y1108280D01*
X9334726Y1087120D01*
X9461685D02*
X9504005D01*
X9525165Y1108280D01*
Y1150599D01*
X9504005Y1171759D01*
X9461685D01*
X9440525Y1150599D01*
Y1108280D01*
X9461685Y1087120D01*
X9588644Y1192919D02*
Y1171759D01*
X9567484D01*
X9609804D01*
X9588644D01*
Y1108280D01*
X9609804Y1087120D01*
X9673283D02*
X9715603D01*
X9694443D01*
Y1214079D01*
X9673283D01*
X9800242Y1087120D02*
X9842562D01*
X9863722Y1108280D01*
Y1150599D01*
X9842562Y1171759D01*
X9800242D01*
X9779082Y1150599D01*
Y1108280D01*
X9800242Y1087120D01*
X9927201Y1171759D02*
X9969521D01*
X9990681Y1150599D01*
Y1087120D01*
X9927201D01*
X9906041Y1108280D01*
X9927201Y1129440D01*
X9990681D01*
X10117639Y1214079D02*
Y1087120D01*
X10054160D01*
X10033000Y1108280D01*
Y1150599D01*
X10054160Y1171759D01*
X10117639D01*
X10223438Y1087120D02*
X10181119D01*
X10159959Y1108280D01*
Y1150599D01*
X10181119Y1171759D01*
X10223438D01*
X10244598Y1150599D01*
Y1129440D01*
X10159959D01*
X10286918Y1171759D02*
Y1087120D01*
Y1129440D01*
X10308077Y1150599D01*
X10329237Y1171759D01*
X10350397D01*
X10540835Y1214079D02*
Y1087120D01*
X10604315D01*
X10625475Y1108280D01*
Y1129440D01*
X10604315Y1150599D01*
X10540835D01*
X10604315D01*
X10625475Y1171759D01*
Y1192919D01*
X10604315Y1214079D01*
X10540835D01*
X10667794D02*
X10752434D01*
X10710114D01*
Y1087120D01*
X10794753D02*
Y1214079D01*
X10879393Y1087120D01*
Y1214079D01*
X5376607D02*
Y1087120D01*
X5440087D01*
X5461247Y1108280D01*
Y1129440D01*
X5440087Y1150599D01*
X5376607D01*
X5440087D01*
X5461247Y1171759D01*
Y1192919D01*
X5440087Y1214079D01*
X5376607D01*
X5524726Y1087120D02*
X5567046D01*
X5588206Y1108280D01*
Y1150599D01*
X5567046Y1171759D01*
X5524726D01*
X5503566Y1150599D01*
Y1108280D01*
X5524726Y1087120D01*
X5651685D02*
X5694005D01*
X5715165Y1108280D01*
Y1150599D01*
X5694005Y1171759D01*
X5651685D01*
X5630525Y1150599D01*
Y1108280D01*
X5651685Y1087120D01*
X5778644Y1192919D02*
Y1171759D01*
X5757484D01*
X5799804D01*
X5778644D01*
Y1108280D01*
X5799804Y1087120D01*
X5863283D02*
X5905603D01*
X5884443D01*
Y1214079D01*
X5863283D01*
X5990242Y1087120D02*
X6032562D01*
X6053722Y1108280D01*
Y1150599D01*
X6032562Y1171759D01*
X5990242D01*
X5969082Y1150599D01*
Y1108280D01*
X5990242Y1087120D01*
X6117201Y1171759D02*
X6159521D01*
X6180681Y1150599D01*
Y1087120D01*
X6117201D01*
X6096041Y1108280D01*
X6117201Y1129440D01*
X6180681D01*
X6307639Y1214079D02*
Y1087120D01*
X6244160D01*
X6223000Y1108280D01*
Y1150599D01*
X6244160Y1171759D01*
X6307639D01*
X6413438Y1087120D02*
X6371119D01*
X6349959Y1108280D01*
Y1150599D01*
X6371119Y1171759D01*
X6413438D01*
X6434598Y1150599D01*
Y1129440D01*
X6349959D01*
X6476918Y1171759D02*
Y1087120D01*
Y1129440D01*
X6498077Y1150599D01*
X6519237Y1171759D01*
X6540397D01*
X6730835Y1214079D02*
Y1087120D01*
X6794315D01*
X6815475Y1108280D01*
Y1129440D01*
X6794315Y1150599D01*
X6730835D01*
X6794315D01*
X6815475Y1171759D01*
Y1192919D01*
X6794315Y1214079D01*
X6730835D01*
X6857794D02*
X6942434D01*
X6900114D01*
Y1087120D01*
X6984753D02*
Y1214079D01*
X7069393Y1087120D01*
Y1214079D01*
X1566607D02*
Y1087120D01*
X1630087D01*
X1651247Y1108280D01*
Y1129440D01*
X1630087Y1150599D01*
X1566607D01*
X1630087D01*
X1651247Y1171759D01*
Y1192919D01*
X1630087Y1214079D01*
X1566607D01*
X1714726Y1087120D02*
X1757046D01*
X1778206Y1108280D01*
Y1150599D01*
X1757046Y1171759D01*
X1714726D01*
X1693566Y1150599D01*
Y1108280D01*
X1714726Y1087120D01*
X1841685D02*
X1884005D01*
X1905165Y1108280D01*
Y1150599D01*
X1884005Y1171759D01*
X1841685D01*
X1820525Y1150599D01*
Y1108280D01*
X1841685Y1087120D01*
X1968644Y1192919D02*
Y1171759D01*
X1947484D01*
X1989804D01*
X1968644D01*
Y1108280D01*
X1989804Y1087120D01*
X2053283D02*
X2095603D01*
X2074443D01*
Y1214079D01*
X2053283D01*
X2180242Y1087120D02*
X2222562D01*
X2243722Y1108280D01*
Y1150599D01*
X2222562Y1171759D01*
X2180242D01*
X2159082Y1150599D01*
Y1108280D01*
X2180242Y1087120D01*
X2307201Y1171759D02*
X2349521D01*
X2370681Y1150599D01*
Y1087120D01*
X2307201D01*
X2286041Y1108280D01*
X2307201Y1129440D01*
X2370681D01*
X2497639Y1214079D02*
Y1087120D01*
X2434160D01*
X2413000Y1108280D01*
Y1150599D01*
X2434160Y1171759D01*
X2497639D01*
X2603438Y1087120D02*
X2561119D01*
X2539959Y1108280D01*
Y1150599D01*
X2561119Y1171759D01*
X2603438D01*
X2624598Y1150599D01*
Y1129440D01*
X2539959D01*
X2666918Y1171759D02*
Y1087120D01*
Y1129440D01*
X2688077Y1150599D01*
X2709237Y1171759D01*
X2730397D01*
X2920835Y1214079D02*
Y1087120D01*
X2984315D01*
X3005475Y1108280D01*
Y1129440D01*
X2984315Y1150599D01*
X2920835D01*
X2984315D01*
X3005475Y1171759D01*
Y1192919D01*
X2984315Y1214079D01*
X2920835D01*
X3047794D02*
X3132434D01*
X3090114D01*
Y1087120D01*
X3174753D02*
Y1214079D01*
X3259393Y1087120D01*
Y1214079D01*
D27*
X11696500Y1100000D02*
G03*
X11696500Y1100000I-12500J0D01*
G01*
X1028500D02*
G03*
X1028500Y1100000I-12500J0D01*
G01*
X4838500D02*
G03*
X4838500Y1100000I-12500J0D01*
G01*
X8648500D02*
G03*
X8648500Y1100000I-12500J0D01*
G01*
X4076500D02*
G03*
X4076500Y1100000I-12500J0D01*
G01*
X7886500D02*
G03*
X7886500Y1100000I-12500J0D01*
G01*
D28*
X11567000Y7200000D02*
G03*
X11567000Y7200000I-10000J0D01*
G01*
X11059000Y6184000D02*
G03*
X11059000Y6184000I-10000J0D01*
G01*
X899000Y7200000D02*
G03*
X899000Y7200000I-10000J0D01*
G01*
X4709000D02*
G03*
X4709000Y7200000I-10000J0D01*
G01*
X8519000D02*
G03*
X8519000Y7200000I-10000J0D01*
G01*
X1407000D02*
G03*
X1407000Y7200000I-10000J0D01*
G01*
X5217000D02*
G03*
X5217000Y7200000I-10000J0D01*
G01*
X9027000D02*
G03*
X9027000Y7200000I-10000J0D01*
G01*
X3439000Y6184000D02*
G03*
X3439000Y6184000I-10000J0D01*
G01*
X7249000Y6184000D02*
G03*
X7249000Y6184000I-10000J0D01*
G01*
X3947000Y7200000D02*
G03*
X3947000Y7200000I-10000J0D01*
G01*
X7757000Y7200000D02*
G03*
X7757000Y7200000I-10000J0D01*
G01*
D29*
X10439400Y165100D02*
G03*
X10439400Y165100I-12700J0D01*
G01*
X2819400D02*
G03*
X2819400Y165100I-12700J0D01*
G01*
X6629400D02*
G03*
X6629400Y165100I-12700J0D01*
G01*
X1270000Y1016000D02*
X3556000D01*
X1270000Y7620000D02*
X3556000D01*
Y1016000D02*
Y7620000D01*
X1270000Y1016000D02*
Y7620000D01*
X8890000Y1016000D02*
X11176000D01*
X8890000Y7620000D02*
X11176000D01*
Y1016000D02*
Y7620000D01*
X8890000Y1016000D02*
Y7620000D01*
X5080000Y1016000D02*
X7366000D01*
X5080000Y7620000D02*
X7366000D01*
Y1016000D02*
Y7620000D01*
X5080000Y1016000D02*
Y7620000D01*
D30*
X11811000Y1143000D02*
Y2159000D01*
X11303000D02*
X11811000D01*
X11303000Y1143000D02*
Y2159000D01*
Y1143000D02*
X11811000D01*
X10897000Y6331000D02*
Y7131000D01*
Y6331000D02*
X11404600D01*
Y7131000D01*
X10897000D02*
X11404600D01*
X11423800Y7150200D02*
X11423800Y3009800D01*
X11690200D01*
X11423800Y7150200D02*
X11690200D01*
Y3009900D02*
Y7150200D01*
X11573028Y707500D02*
Y907000D01*
X11371000D02*
X11573028D01*
X10777000Y905028D02*
X10976500D01*
X10777000Y703000D02*
Y905028D01*
X10778972Y109000D02*
Y308500D01*
Y109000D02*
X10981000D01*
X11375500Y110972D02*
X11575000D01*
Y313000D01*
X10915800Y6134200D02*
X10915800Y3009900D01*
X11182200D01*
X10915800Y6134200D02*
X11182200D01*
Y3009900D02*
Y6134200D01*
X1143000Y1143000D02*
Y2159000D01*
X635000D02*
X1143000D01*
X635000Y1143000D02*
Y2159000D01*
Y1143000D02*
X1143000D01*
X4953000D02*
Y2159000D01*
X4445000D02*
X4953000D01*
X4445000Y1143000D02*
Y2159000D01*
Y1143000D02*
X4953000D01*
X8763000D02*
Y2159000D01*
X8255000D02*
X8763000D01*
X8255000Y1143000D02*
Y2159000D01*
Y1143000D02*
X8763000D01*
X1667028Y707500D02*
Y907000D01*
X1465000D02*
X1667028D01*
X871000Y905028D02*
X1070500D01*
X871000Y703000D02*
Y905028D01*
X872972Y109000D02*
Y308500D01*
Y109000D02*
X1075000D01*
X1469500Y110972D02*
X1669000D01*
Y313000D01*
X5477028Y707500D02*
Y907000D01*
X5275000D02*
X5477028D01*
X4681000Y905028D02*
X4880500D01*
X4681000Y703000D02*
Y905028D01*
X4682972Y109000D02*
Y308500D01*
Y109000D02*
X4885000D01*
X5279500Y110972D02*
X5479000D01*
Y313000D01*
X9287028Y707500D02*
Y907000D01*
X9085000D02*
X9287028D01*
X8491000Y905028D02*
X8690500D01*
X8491000Y703000D02*
Y905028D01*
X8492972Y109000D02*
Y308500D01*
Y109000D02*
X8695000D01*
X9089500Y110972D02*
X9289000D01*
Y313000D01*
X4191000Y1143000D02*
Y2159000D01*
X3683000D02*
X4191000D01*
X3683000Y1143000D02*
Y2159000D01*
Y1143000D02*
X4191000D01*
X8001000D02*
Y2159000D01*
X7493000D02*
X8001000D01*
X7493000Y1143000D02*
Y2159000D01*
Y1143000D02*
X8001000D01*
X3953028Y707500D02*
Y907000D01*
X3751000D02*
X3953028D01*
X3157000Y905028D02*
X3356500D01*
X3157000Y703000D02*
Y905028D01*
X3158972Y109000D02*
Y308500D01*
Y109000D02*
X3361000D01*
X3755500Y110972D02*
X3955000D01*
Y313000D01*
X7763028Y707500D02*
Y907000D01*
X7561000D02*
X7763028D01*
X6967000Y905028D02*
X7166500D01*
X6967000Y703000D02*
Y905028D01*
X6968972Y109000D02*
Y308500D01*
Y109000D02*
X7171000D01*
X7565500Y110972D02*
X7765000D01*
Y313000D01*
X3277000Y6331000D02*
Y7131000D01*
Y6331000D02*
X3784600D01*
Y7131000D01*
X3277000Y7131000D02*
X3784600Y7131000D01*
X7087000Y6331000D02*
Y7131000D01*
Y6331000D02*
X7594600D01*
Y7131000D01*
X7087000D02*
X7594600D01*
X755800Y7150200D02*
X755800Y3009800D01*
X1022200D01*
X755800Y7150200D02*
X1022200D01*
Y3009900D02*
Y7150200D01*
X4565800D02*
X4565800Y3009800D01*
X4832200D01*
X4565800Y7150200D02*
X4832200D01*
Y3009900D02*
Y7150200D01*
X8375800D02*
X8375800Y3009800D01*
X8642200D01*
X8375800Y7150200D02*
X8642200D01*
Y3009900D02*
Y7150200D01*
X1263800D02*
X1263800Y3009800D01*
X1530200D01*
X1263800Y7150200D02*
X1530200D01*
Y3009900D02*
Y7150200D01*
X5073800D02*
X5073800Y3009800D01*
X5340200D01*
X5073800Y7150200D02*
X5340200D01*
Y3009900D02*
Y7150200D01*
X8883800D02*
X8883800Y3009800D01*
X9150200D01*
X8883800Y7150200D02*
X9150200D01*
Y3009900D02*
Y7150200D01*
X3295800Y6134200D02*
X3295800Y3009900D01*
X3562200D01*
X3295800Y6134200D02*
X3562200D01*
Y3009900D02*
Y6134200D01*
X7105800Y6134200D02*
X7105800Y3009900D01*
X7372200D01*
X7105800Y6134200D02*
X7372200D01*
Y3009900D02*
Y6134200D01*
X3803800Y7150200D02*
X3803800Y3009800D01*
X4070200D01*
X3803800Y7150200D02*
X4070200D01*
Y3009900D02*
Y7150200D01*
X7613800Y7150200D02*
X7613800Y3009800D01*
X7880200D01*
X7613800Y7150200D02*
X7880200D01*
Y3009900D02*
Y7150200D01*
D31*
X11438505Y2336784D02*
X11404649D01*
X11421577D01*
Y2252144D01*
X11404649Y2235217D01*
X11387721D01*
X11370794Y2252144D01*
X11472361D02*
X11489289Y2235217D01*
X11523144D01*
X11540072Y2252144D01*
Y2319856D01*
X11523144Y2336784D01*
X11489289D01*
X11472361Y2319856D01*
Y2302928D01*
X11489289Y2286000D01*
X11540072D01*
X11573928D02*
X11641639D01*
X11675495Y2319856D02*
X11692423Y2336784D01*
X11726279D01*
X11743207Y2319856D01*
Y2302928D01*
X11726279Y2286000D01*
X11709351D01*
X11726279D01*
X11743207Y2269072D01*
Y2252144D01*
X11726279Y2235217D01*
X11692423D01*
X11675495Y2252144D01*
X11252216Y7340649D02*
Y7306793D01*
Y7323721D01*
X11336856D01*
X11353783Y7306793D01*
Y7289866D01*
X11336856Y7272938D01*
X11353783Y7374505D02*
Y7408361D01*
Y7391433D01*
X11252216D01*
X11269144Y7374505D01*
X11353783Y7459144D02*
Y7493000D01*
Y7476072D01*
X11252216D01*
X11269144Y7459144D01*
X11303000Y7543784D02*
Y7611495D01*
X11269144Y7645351D02*
X11252216Y7662279D01*
Y7696134D01*
X11269144Y7713062D01*
X11286072D01*
X11303000Y7696134D01*
Y7679207D01*
Y7696134D01*
X11319928Y7713062D01*
X11336856D01*
X11353783Y7696134D01*
Y7662279D01*
X11336856Y7645351D01*
X11506216Y7332185D02*
Y7298330D01*
Y7315257D01*
X11590856D01*
X11607783Y7298330D01*
Y7281402D01*
X11590856Y7264474D01*
X11607783Y7366041D02*
Y7399897D01*
Y7382969D01*
X11506216D01*
X11523144Y7366041D01*
X11506216Y7518392D02*
X11523144Y7484536D01*
X11557000Y7450681D01*
X11590856D01*
X11607783Y7467608D01*
Y7501464D01*
X11590856Y7518392D01*
X11573928D01*
X11557000Y7501464D01*
Y7450681D01*
Y7552248D02*
Y7619959D01*
X11523144Y7653815D02*
X11506216Y7670743D01*
Y7704599D01*
X11523144Y7721526D01*
X11540072D01*
X11557000Y7704599D01*
Y7687671D01*
Y7704599D01*
X11573928Y7721526D01*
X11590856D01*
X11607783Y7704599D01*
Y7670743D01*
X11590856Y7653815D01*
X9863721Y135456D02*
X9846793Y152384D01*
X9812938D01*
X9796010Y135456D01*
Y118528D01*
X9812938Y101600D01*
X9846793D01*
X9863721Y84672D01*
Y67744D01*
X9846793Y50817D01*
X9812938D01*
X9796010Y67744D01*
X9897577Y152384D02*
Y50817D01*
X9931433Y84672D01*
X9965288Y50817D01*
Y152384D01*
X10066856Y50817D02*
X9999144D01*
X10066856Y118528D01*
Y135456D01*
X10049928Y152384D01*
X10016072D01*
X9999144Y135456D01*
X10100712Y101600D02*
X10168423D01*
X10202279Y135456D02*
X10219207Y152384D01*
X10253062D01*
X10269990Y135456D01*
Y118528D01*
X10253062Y101600D01*
X10236134D01*
X10253062D01*
X10269990Y84672D01*
Y67744D01*
X10253062Y50817D01*
X10219207D01*
X10202279Y67744D01*
X11633216Y220185D02*
Y186330D01*
Y203257D01*
X11717856D01*
X11734783Y186330D01*
Y169402D01*
X11717856Y152474D01*
X11734783Y254041D02*
Y287897D01*
Y270969D01*
X11633216D01*
X11650144Y254041D01*
Y338681D02*
X11633216Y355608D01*
Y389464D01*
X11650144Y406392D01*
X11717856D01*
X11734783Y389464D01*
Y355608D01*
X11717856Y338681D01*
X11650144D01*
X11684000Y440248D02*
Y507959D01*
X11650144Y541815D02*
X11633216Y558743D01*
Y592599D01*
X11650144Y609526D01*
X11667072D01*
X11684000Y592599D01*
Y575671D01*
Y592599D01*
X11700928Y609526D01*
X11717856D01*
X11734783Y592599D01*
Y558743D01*
X11717856Y541815D01*
X10744216Y5681185D02*
Y5647330D01*
Y5664257D01*
X10828856D01*
X10845783Y5647330D01*
Y5630402D01*
X10828856Y5613474D01*
X10845783Y5715041D02*
Y5748897D01*
Y5731969D01*
X10744216D01*
X10761144Y5715041D01*
X10744216Y5867392D02*
Y5799681D01*
X10795000D01*
X10778072Y5833536D01*
Y5850464D01*
X10795000Y5867392D01*
X10828856D01*
X10845783Y5850464D01*
Y5816608D01*
X10828856Y5799681D01*
X10795000Y5901248D02*
Y5968959D01*
X10761144Y6002815D02*
X10744216Y6019743D01*
Y6053599D01*
X10761144Y6070526D01*
X10778072D01*
X10795000Y6053599D01*
Y6036671D01*
Y6053599D01*
X10811928Y6070526D01*
X10828856D01*
X10845783Y6053599D01*
Y6019743D01*
X10828856Y6002815D01*
X838233Y2336784D02*
X804377D01*
X821305D01*
Y2252144D01*
X804377Y2235217D01*
X787449D01*
X770521Y2252144D01*
X872089Y2336784D02*
X939800D01*
Y2319856D01*
X872089Y2252144D01*
Y2235217D01*
X973656Y2286000D02*
X1041367D01*
X1075223Y2235217D02*
X1109079D01*
X1092151D01*
Y2336784D01*
X1075223Y2319856D01*
X4580505Y2336784D02*
X4546649D01*
X4563577D01*
Y2252144D01*
X4546649Y2235217D01*
X4529721D01*
X4512794Y2252144D01*
X4614361Y2336784D02*
X4682072D01*
Y2319856D01*
X4614361Y2252144D01*
Y2235217D01*
X4715928Y2286000D02*
X4783639D01*
X4885207Y2235217D02*
X4817495D01*
X4885207Y2302928D01*
Y2319856D01*
X4868279Y2336784D01*
X4834423D01*
X4817495Y2319856D01*
X8415905Y2336784D02*
X8382049D01*
X8398977D01*
Y2252144D01*
X8382049Y2235217D01*
X8365121D01*
X8348194Y2252144D01*
X8449761Y2336784D02*
X8517472D01*
Y2319856D01*
X8449761Y2252144D01*
Y2235217D01*
X8551328Y2286000D02*
X8619039D01*
X8652895Y2319856D02*
X8669823Y2336784D01*
X8703679D01*
X8720607Y2319856D01*
Y2302928D01*
X8703679Y2286000D01*
X8686751D01*
X8703679D01*
X8720607Y2269072D01*
Y2252144D01*
X8703679Y2235217D01*
X8669823D01*
X8652895Y2252144D01*
X711216Y279433D02*
Y245577D01*
Y262505D01*
X795856D01*
X812783Y245577D01*
Y228649D01*
X795856Y211721D01*
X728144Y313289D02*
X711216Y330217D01*
Y364072D01*
X728144Y381000D01*
X745072D01*
X762000Y364072D01*
X778928Y381000D01*
X795856D01*
X812783Y364072D01*
Y330217D01*
X795856Y313289D01*
X778928D01*
X762000Y330217D01*
X745072Y313289D01*
X728144D01*
X762000Y330217D02*
Y364072D01*
Y414856D02*
Y482567D01*
X812783Y516423D02*
Y550279D01*
Y533351D01*
X711216D01*
X728144Y516423D01*
X4521216Y262505D02*
Y228649D01*
Y245577D01*
X4605856D01*
X4622783Y228649D01*
Y211721D01*
X4605856Y194794D01*
X4538144Y296361D02*
X4521216Y313289D01*
Y347144D01*
X4538144Y364072D01*
X4555072D01*
X4572000Y347144D01*
X4588928Y364072D01*
X4605856D01*
X4622783Y347144D01*
Y313289D01*
X4605856Y296361D01*
X4588928D01*
X4572000Y313289D01*
X4555072Y296361D01*
X4538144D01*
X4572000Y313289D02*
Y347144D01*
Y397928D02*
Y465639D01*
X4622783Y567207D02*
Y499495D01*
X4555072Y567207D01*
X4538144D01*
X4521216Y550279D01*
Y516423D01*
X4538144Y499495D01*
X8331216Y262505D02*
Y228649D01*
Y245577D01*
X8415856D01*
X8432783Y228649D01*
Y211721D01*
X8415856Y194794D01*
X8348144Y296361D02*
X8331216Y313289D01*
Y347144D01*
X8348144Y364072D01*
X8365072D01*
X8382000Y347144D01*
X8398928Y364072D01*
X8415856D01*
X8432783Y347144D01*
Y313289D01*
X8415856Y296361D01*
X8398928D01*
X8382000Y313289D01*
X8365072Y296361D01*
X8348144D01*
X8382000Y313289D02*
Y347144D01*
Y397928D02*
Y465639D01*
X8348144Y499495D02*
X8331216Y516423D01*
Y550279D01*
X8348144Y567207D01*
X8365072D01*
X8382000Y550279D01*
Y533351D01*
Y550279D01*
X8398928Y567207D01*
X8415856D01*
X8432783Y550279D01*
Y516423D01*
X8415856Y499495D01*
X3835433Y2336784D02*
X3801577D01*
X3818505D01*
Y2252144D01*
X3801577Y2235217D01*
X3784649D01*
X3767721Y2252144D01*
X3869289D02*
X3886217Y2235217D01*
X3920072D01*
X3937000Y2252144D01*
Y2319856D01*
X3920072Y2336784D01*
X3886217D01*
X3869289Y2319856D01*
Y2302928D01*
X3886217Y2286000D01*
X3937000D01*
X3970856D02*
X4038567D01*
X4072423Y2235217D02*
X4106279D01*
X4089351D01*
Y2336784D01*
X4072423Y2319856D01*
X7628505Y2336784D02*
X7594649D01*
X7611577D01*
Y2252144D01*
X7594649Y2235217D01*
X7577721D01*
X7560794Y2252144D01*
X7662361D02*
X7679289Y2235217D01*
X7713144D01*
X7730072Y2252144D01*
Y2319856D01*
X7713144Y2336784D01*
X7679289D01*
X7662361Y2319856D01*
Y2302928D01*
X7679289Y2286000D01*
X7730072D01*
X7763928D02*
X7831639D01*
X7933207Y2235217D02*
X7865495D01*
X7933207Y2302928D01*
Y2319856D01*
X7916279Y2336784D01*
X7882423D01*
X7865495Y2319856D01*
X4013216Y237113D02*
Y203257D01*
Y220185D01*
X4097856D01*
X4114783Y203257D01*
Y186330D01*
X4097856Y169402D01*
X4114783Y270969D02*
Y304825D01*
Y287897D01*
X4013216D01*
X4030144Y270969D01*
Y355608D02*
X4013216Y372536D01*
Y406392D01*
X4030144Y423320D01*
X4097856D01*
X4114783Y406392D01*
Y372536D01*
X4097856Y355608D01*
X4030144D01*
X4064000Y457176D02*
Y524887D01*
X4114783Y558743D02*
Y592599D01*
Y575671D01*
X4013216D01*
X4030144Y558743D01*
X7823216Y220185D02*
Y186330D01*
Y203257D01*
X7907856D01*
X7924783Y186330D01*
Y169402D01*
X7907856Y152474D01*
X7924783Y254041D02*
Y287897D01*
Y270969D01*
X7823216D01*
X7840144Y254041D01*
Y338681D02*
X7823216Y355608D01*
Y389464D01*
X7840144Y406392D01*
X7907856D01*
X7924783Y389464D01*
Y355608D01*
X7907856Y338681D01*
X7840144D01*
X7874000Y440248D02*
Y507959D01*
X7924783Y609526D02*
Y541815D01*
X7857072Y609526D01*
X7840144D01*
X7823216Y592599D01*
Y558743D01*
X7840144Y541815D01*
X3632216Y7357577D02*
Y7323721D01*
Y7340649D01*
X3716855D01*
X3733783Y7323721D01*
Y7306794D01*
X3716855Y7289866D01*
X3733783Y7391433D02*
Y7425289D01*
Y7408361D01*
X3632216D01*
X3649144Y7391433D01*
X3733783Y7476072D02*
Y7509928D01*
Y7493000D01*
X3632216D01*
X3649144Y7476072D01*
X3683000Y7560712D02*
Y7628423D01*
X3733783Y7662279D02*
Y7696135D01*
Y7679207D01*
X3632216D01*
X3649144Y7662279D01*
X7467616Y7340649D02*
Y7306793D01*
Y7323721D01*
X7552256D01*
X7569183Y7306793D01*
Y7289866D01*
X7552256Y7272938D01*
X7569183Y7374505D02*
Y7408361D01*
Y7391433D01*
X7467616D01*
X7484544Y7374505D01*
X7569183Y7459144D02*
Y7493000D01*
Y7476072D01*
X7467616D01*
X7484544Y7459144D01*
X7518400Y7543784D02*
Y7611495D01*
X7569183Y7713062D02*
Y7645351D01*
X7501472Y7713062D01*
X7484544D01*
X7467616Y7696134D01*
Y7662279D01*
X7484544Y7645351D01*
X838216Y7349113D02*
Y7315257D01*
Y7332185D01*
X922856D01*
X939783Y7315257D01*
Y7298330D01*
X922856Y7281402D01*
X939783Y7382969D02*
Y7416825D01*
Y7399897D01*
X838216D01*
X855144Y7382969D01*
Y7467608D02*
X838216Y7484536D01*
Y7518392D01*
X855144Y7535320D01*
X872072D01*
X889000Y7518392D01*
Y7501464D01*
Y7518392D01*
X905928Y7535320D01*
X922856D01*
X939783Y7518392D01*
Y7484536D01*
X922856Y7467608D01*
X889000Y7569176D02*
Y7636887D01*
X939783Y7670743D02*
Y7704599D01*
Y7687671D01*
X838216D01*
X855144Y7670743D01*
X4648216Y7332185D02*
Y7298330D01*
Y7315257D01*
X4732856D01*
X4749783Y7298330D01*
Y7281402D01*
X4732856Y7264474D01*
X4749783Y7366041D02*
Y7399897D01*
Y7382969D01*
X4648216D01*
X4665144Y7366041D01*
Y7450681D02*
X4648216Y7467608D01*
Y7501464D01*
X4665144Y7518392D01*
X4682072D01*
X4699000Y7501464D01*
Y7484536D01*
Y7501464D01*
X4715928Y7518392D01*
X4732856D01*
X4749783Y7501464D01*
Y7467608D01*
X4732856Y7450681D01*
X4699000Y7552248D02*
Y7619959D01*
X4749783Y7721526D02*
Y7653815D01*
X4682072Y7721526D01*
X4665144D01*
X4648216Y7704599D01*
Y7670743D01*
X4665144Y7653815D01*
X8458216Y7332185D02*
Y7298330D01*
Y7315257D01*
X8542856D01*
X8559783Y7298330D01*
Y7281402D01*
X8542856Y7264474D01*
X8559783Y7366041D02*
Y7399897D01*
Y7382969D01*
X8458216D01*
X8475144Y7366041D01*
Y7450681D02*
X8458216Y7467608D01*
Y7501464D01*
X8475144Y7518392D01*
X8492072D01*
X8509000Y7501464D01*
Y7484536D01*
Y7501464D01*
X8525928Y7518392D01*
X8542856D01*
X8559783Y7501464D01*
Y7467608D01*
X8542856Y7450681D01*
X8509000Y7552248D02*
Y7619959D01*
X8475144Y7653815D02*
X8458216Y7670743D01*
Y7704599D01*
X8475144Y7721526D01*
X8492072D01*
X8509000Y7704599D01*
Y7687671D01*
Y7704599D01*
X8525928Y7721526D01*
X8542856D01*
X8559783Y7704599D01*
Y7670743D01*
X8542856Y7653815D01*
X1092216Y7349113D02*
Y7315257D01*
Y7332185D01*
X1176856D01*
X1193783Y7315257D01*
Y7298330D01*
X1176856Y7281402D01*
X1193783Y7382969D02*
Y7416825D01*
Y7399897D01*
X1092216D01*
X1109144Y7382969D01*
X1193783Y7518392D02*
X1092216D01*
X1143000Y7467608D01*
Y7535320D01*
Y7569176D02*
Y7636887D01*
X1193783Y7670743D02*
Y7704599D01*
Y7687671D01*
X1092216D01*
X1109144Y7670743D01*
X4902216Y7332185D02*
Y7298330D01*
Y7315257D01*
X4986856D01*
X5003783Y7298330D01*
Y7281402D01*
X4986856Y7264474D01*
X5003783Y7366041D02*
Y7399897D01*
Y7382969D01*
X4902216D01*
X4919144Y7366041D01*
X5003783Y7501464D02*
X4902216D01*
X4953000Y7450681D01*
Y7518392D01*
Y7552248D02*
Y7619959D01*
X5003783Y7721526D02*
Y7653815D01*
X4936072Y7721526D01*
X4919144D01*
X4902216Y7704599D01*
Y7670743D01*
X4919144Y7653815D01*
X8712216Y7332185D02*
Y7298330D01*
Y7315257D01*
X8796856D01*
X8813783Y7298330D01*
Y7281402D01*
X8796856Y7264474D01*
X8813783Y7366041D02*
Y7399897D01*
Y7382969D01*
X8712216D01*
X8729144Y7366041D01*
X8813783Y7501464D02*
X8712216D01*
X8763000Y7450681D01*
Y7518392D01*
Y7552248D02*
Y7619959D01*
X8729144Y7653815D02*
X8712216Y7670743D01*
Y7704599D01*
X8729144Y7721526D01*
X8746072D01*
X8763000Y7704599D01*
Y7687671D01*
Y7704599D01*
X8779928Y7721526D01*
X8796856D01*
X8813783Y7704599D01*
Y7670743D01*
X8796856Y7653815D01*
X3124216Y5698113D02*
Y5664257D01*
Y5681185D01*
X3208856D01*
X3225783Y5664257D01*
Y5647330D01*
X3208856Y5630402D01*
X3225783Y5731969D02*
Y5765825D01*
Y5748897D01*
X3124216D01*
X3141144Y5731969D01*
X3124216Y5884320D02*
Y5816608D01*
X3175000D01*
X3158072Y5850464D01*
Y5867392D01*
X3175000Y5884320D01*
X3208856D01*
X3225783Y5867392D01*
Y5833536D01*
X3208856Y5816608D01*
X3175000Y5918176D02*
Y5985887D01*
X3225783Y6019743D02*
Y6053599D01*
Y6036671D01*
X3124216D01*
X3141144Y6019743D01*
X6934216Y5681185D02*
Y5647330D01*
Y5664257D01*
X7018856D01*
X7035783Y5647330D01*
Y5630402D01*
X7018856Y5613474D01*
X7035783Y5715041D02*
Y5748897D01*
Y5731969D01*
X6934216D01*
X6951144Y5715041D01*
X6934216Y5867392D02*
Y5799681D01*
X6985000D01*
X6968072Y5833536D01*
Y5850464D01*
X6985000Y5867392D01*
X7018856D01*
X7035783Y5850464D01*
Y5816608D01*
X7018856Y5799681D01*
X6985000Y5901248D02*
Y5968959D01*
X7035783Y6070526D02*
Y6002815D01*
X6968072Y6070526D01*
X6951144D01*
X6934216Y6053599D01*
Y6019743D01*
X6951144Y6002815D01*
X3886216Y7349113D02*
Y7315257D01*
Y7332185D01*
X3970856D01*
X3987783Y7315257D01*
Y7298330D01*
X3970856Y7281402D01*
X3987783Y7382969D02*
Y7416825D01*
Y7399897D01*
X3886216D01*
X3903144Y7382969D01*
X3886216Y7535320D02*
X3903144Y7501464D01*
X3937000Y7467608D01*
X3970856D01*
X3987783Y7484536D01*
Y7518392D01*
X3970856Y7535320D01*
X3953928D01*
X3937000Y7518392D01*
Y7467608D01*
Y7569176D02*
Y7636887D01*
X3987783Y7670743D02*
Y7704599D01*
Y7687671D01*
X3886216D01*
X3903144Y7670743D01*
X7696216Y7332185D02*
Y7298330D01*
Y7315257D01*
X7780856D01*
X7797783Y7298330D01*
Y7281402D01*
X7780856Y7264474D01*
X7797783Y7366041D02*
Y7399897D01*
Y7382969D01*
X7696216D01*
X7713144Y7366041D01*
X7696216Y7518392D02*
X7713144Y7484536D01*
X7747000Y7450681D01*
X7780856D01*
X7797783Y7467608D01*
Y7501464D01*
X7780856Y7518392D01*
X7763928D01*
X7747000Y7501464D01*
Y7450681D01*
Y7552248D02*
Y7619959D01*
X7797783Y7721526D02*
Y7653815D01*
X7730072Y7721526D01*
X7713144D01*
X7696216Y7704599D01*
Y7670743D01*
X7713144Y7653815D01*
X2260649Y135456D02*
X2243721Y152384D01*
X2209866D01*
X2192938Y135456D01*
Y118528D01*
X2209866Y101600D01*
X2243721D01*
X2260649Y84672D01*
Y67744D01*
X2243721Y50817D01*
X2209866D01*
X2192938Y67744D01*
X2294505Y152384D02*
Y50817D01*
X2328361Y84672D01*
X2362216Y50817D01*
Y152384D01*
X2463783Y50817D02*
X2396072D01*
X2463783Y118528D01*
Y135456D01*
X2446856Y152384D01*
X2413000D01*
X2396072Y135456D01*
X2497639Y101600D02*
X2565351D01*
X2599207Y50817D02*
X2633062D01*
X2616134D01*
Y152384D01*
X2599207Y135456D01*
X6053721D02*
X6036793Y152384D01*
X6002938D01*
X5986010Y135456D01*
Y118528D01*
X6002938Y101600D01*
X6036793D01*
X6053721Y84672D01*
Y67744D01*
X6036793Y50817D01*
X6002938D01*
X5986010Y67744D01*
X6087577Y152384D02*
Y50817D01*
X6121433Y84672D01*
X6155288Y50817D01*
Y152384D01*
X6256856Y50817D02*
X6189144D01*
X6256856Y118528D01*
Y135456D01*
X6239928Y152384D01*
X6206072D01*
X6189144Y135456D01*
X6290712Y101600D02*
X6358423D01*
X6459990Y50817D02*
X6392279D01*
X6459990Y118528D01*
Y135456D01*
X6443062Y152384D01*
X6409207D01*
X6392279Y135456D01*
D32*
X287888Y3005656D02*
X270961Y3022584D01*
X237105D01*
X220177Y3005656D01*
Y2988728D01*
X237105Y2971800D01*
X270961D01*
X287888Y2954872D01*
Y2937944D01*
X270961Y2921017D01*
X237105D01*
X220177Y2937944D01*
X321744Y2921017D02*
Y3022584D01*
X355600Y2988728D01*
X389456Y3022584D01*
Y2921017D01*
X423312D02*
Y2988728D01*
X457167Y3022584D01*
X491023Y2988728D01*
Y2921017D01*
Y2971800D01*
X423312D01*
%TF.MD5,d3b966888623b68ae70de57fc5e807b8*%
M02*
